<?xml version="1.0" encoding="UTF-8"?>
<svg xmlns="http://www.w3.org/2000/svg" xmlns:xlink="http://www.w3.org/1999/xlink" width="596pt" height="596pt" viewBox="0 0 596 596" version="1.1">
<g id="surface1">
<path style=" stroke:none;fill-rule:evenodd;fill:rgb(0%,35.301208%,66.992188%);fill-opacity:1;" d="M 88.042969 243.605469 C 89.457031 245.816406 95.316406 265.652344 96.171875 269.519531 L 80.125 269.378906 Z M 140.703125 219.769531 C 132.933594 222.0625 132.964844 230.199219 132.964844 238.851563 C 132.964844 252.90625 132.394531 279.410156 132.980469 291.835938 C 133.671875 306.480469 149.941406 307.980469 154.105469 296.503906 C 155.820313 291.78125 155.058594 263.933594 155.058594 257.832031 C 155.058594 249.308594 155.457031 239.773438 155.007813 231.375 C 154.597656 223.722656 149.382813 217.210938 140.703125 219.769531 Z M 169.054688 242.585938 C 156.710938 242.660156 156.441406 256.613281 169.054688 257.523438 C 169.054688 267.042969 169.054688 276.5625 169.054688 286.082031 C 169.054688 290.703125 168.507813 294.8125 170.492188 298.558594 C 174.457031 306.035156 185.957031 305.324219 189.148438 298.875 C 192.113281 292.871094 189.253906 268.867188 190.609375 257.519531 C 197.289063 257.519531 204.355469 257.292969 204.164063 249.890625 C 203.96875 242.460938 197.417969 242.585938 190.480469 242.585938 C 190.480469 237.960938 189.964844 235.28125 194.882813 234.824219 C 199.164063 234.425781 202.484375 235.824219 204.410156 232.476563 C 207.921875 226.371094 202.976563 220.855469 194.355469 219.605469 C 186.734375 218.503906 179.265625 220.0625 174.355469 223.617188 C 168.769531 227.65625 169.054688 236.113281 169.054688 242.585938 Z M 234.820313 256.867188 C 243.6875 254.980469 246.046875 263.125 246.527344 270.613281 C 247.046875 278.65625 246.167969 288.226563 238.179688 288.933594 C 228.953125 289.75 226.054688 282.960938 225.640625 274.613281 C 225.199219 265.773438 227.304688 258.46875 234.820313 256.867188 Z M 249.1875 300.820313 C 250.808594 301.964844 250.839844 302.710938 252.796875 303.648438 C 257.574219 305.945313 264.074219 304.566406 267.050781 299.101563 L 267.488281 247.023438 C 264.625 240.121094 254.210938 237.695313 249.78125 244.304688 C 245.65625 243.453125 243.640625 239.769531 232.839844 240.652344 C 227.003906 241.128906 221.65625 242.9375 217.582031 245.644531 C 210.417969 250.410156 204.285156 259.441406 203.859375 272.390625 C 203.429688 285.496094 209.574219 294.859375 217.128906 299.601563 C 221.320313 302.234375 226.5625 304.089844 232.417969 304.523438 C 243.113281 305.320313 244.101563 302.488281 249.1875 300.820313 Z M 74.960938 287.976563 L 101.445313 287.839844 C 102.546875 292.578125 104.460938 299.425781 107.359375 301.671875 C 111.949219 305.222656 118.675781 304.335938 122.480469 300.628906 C 127.300781 295.933594 126.230469 291.554688 123.953125 285.066406 C 122.171875 279.984375 120.472656 275.136719 118.671875 270.054688 C 115.125 260.066406 111.628906 250.113281 108.210938 240.355469 C 103.765625 227.675781 103.9375 219.796875 88.074219 219.871094 C 81.441406 219.902344 76.359375 221.203125 73.8125 225.476563 C 71.308594 229.679688 56.042969 275.144531 52.492188 284.941406 C 50.332031 290.910156 49.414063 296.113281 53.539063 300.308594 C 58.367188 305.21875 69.269531 306.539063 72.59375 295.765625 C 73.402344 293.144531 74.175781 290.683594 74.960938 287.976563 "/>
<path style=" stroke:none;fill-rule:evenodd;fill:rgb(92.96875%,10.984802%,14.109802%);fill-opacity:1;" d="M 50.550781 351.851563 L 50.636719 360.574219 L 449.144531 360.570313 C 471.210938 360.570313 493.300781 360.679688 515.363281 360.574219 C 524.117188 360.535156 533.394531 356.585938 538.015625 350.242188 C 544.699219 341.074219 544.722656 337.335938 544.722656 323.804688 C 539.816406 323.03125 122.777344 323.597656 79.683594 323.601563 C 63.949219 323.601563 50.550781 336.09375 50.550781 351.851563 "/>
<path style=" stroke:none;fill-rule:evenodd;fill:rgb(92.96875%,10.984802%,14.109802%);fill-opacity:1;" d="M 507.839844 227.871094 C 509.085938 230.929688 509.765625 229.867188 509.617188 234.890625 C 509.535156 237.664063 509.074219 240.40625 508.558594 243.113281 C 507.644531 247.933594 506.242188 252.835938 505.125 257.722656 C 500.734375 276.890625 491.464844 307.992188 520.757813 304.277344 C 530.578125 303.03125 541.980469 297.410156 535.644531 286.605469 C 531.425781 289.035156 518.429688 298.109375 518.425781 284.324219 C 518.425781 275.808594 521.570313 267.574219 522.75 259.488281 C 532.027344 259.46875 544.117188 261.515625 544.722656 247.421875 C 538.128906 248.753906 532.359375 249.335938 525.300781 249.003906 C 526.15625 243.621094 531.082031 231.90625 528.121094 227.84375 C 524.3125 222.621094 513.257813 226.542969 507.839844 227.871094 Z M 303.515625 259.378906 C 304.363281 254.367188 308.035156 245.144531 303.515625 241.90625 C 299.359375 238.933594 289.660156 241.027344 285.539063 243.355469 C 288.058594 245.417969 287.511719 248.84375 287.003906 252.898438 C 285.921875 261.496094 283.210938 273.488281 281.03125 281.710938 C 279.871094 286.085938 276.023438 296.28125 278.203125 300.304688 C 281.144531 305.730469 290.070313 304.183594 295.941406 302.28125 C 295.390625 297.78125 293.039063 297.488281 297.789063 287.90625 C 299.894531 283.664063 301.882813 279.667969 303.996094 275.566406 C 306.160156 271.367188 308.636719 267.605469 311 264.023438 C 312.253906 262.128906 313.738281 260.195313 314.96875 258.722656 C 315.773438 257.753906 316.410156 257.417969 317.214844 256.5625 C 318.371094 255.332031 318.214844 254.960938 320.273438 254.75 C 321 260.042969 315.378906 281.023438 313.898438 287.246094 C 312.753906 292.054688 310.097656 298.945313 314.101563 302.390625 C 317.53125 305.34375 326.390625 304.117188 329.957031 301.972656 C 327.753906 296.222656 329.457031 292.6875 331.921875 287.613281 C 334.027344 283.277344 335.90625 279.414063 338.199219 275.335938 C 340.855469 270.617188 350.007813 254.953125 354.238281 254.765625 C 354.972656 256.804688 348.804688 283.550781 347.953125 288.175781 C 346.757813 294.660156 347.097656 301.050781 352.449219 303.328125 C 358.882813 306.066406 364.113281 302.121094 368.492188 300.414063 C 367.828125 298.898438 368.589844 300.417969 367.710938 299.109375 C 367.003906 298.058594 367.5 299.117188 366.816406 297.769531 C 363.695313 291.609375 366.652344 280.710938 367.988281 274.25 C 369.25 268.15625 373.234375 252.644531 372.484375 247.058594 C 371.109375 236.835938 359.71875 238.960938 352.097656 244.214844 C 348.613281 246.621094 346.402344 249.230469 343.878906 251.894531 C 340.707031 255.246094 338.34375 259.113281 336.597656 260.960938 C 337.0625 255.683594 339.667969 249.910156 337.421875 244.652344 C 335.382813 239.878906 330.019531 238.738281 323.992188 240.828125 C 316.617188 243.386719 312.523438 248.621094 307.921875 253.886719 C 307.078125 254.851563 306.710938 255.378906 305.785156 256.609375 Z M 420.886719 257.558594 C 419.644531 259.148438 413.207031 271.71875 408.734375 277.902344 C 406.769531 280.621094 394.242188 299.75 395.378906 282.546875 C 395.898438 274.628906 400.472656 248.652344 411.761719 250.636719 C 415.394531 251.277344 419.882813 255.21875 420.886719 257.558594 Z M 415.164063 283.449219 C 414.953125 290.503906 413.492188 299.007813 418.8125 302.292969 C 424.734375 305.949219 432.425781 303.863281 436.382813 300.359375 C 434.679688 294.359375 433.601563 295.113281 433.984375 285.199219 C 434.355469 275.585938 436.132813 264.820313 439.105469 255.746094 L 443.808594 243.265625 C 440.832031 241.214844 432.671875 239.851563 428.359375 241.042969 C 426.59375 241.53125 425.3125 243.007813 423.664063 242.738281 C 423.171875 242.65625 420.367188 241.230469 419.273438 240.894531 C 401.402344 235.355469 386.328125 251.285156 379.546875 268.125 C 375.027344 279.347656 372.304688 302.1875 386.207031 304.347656 C 393.867188 305.535156 400.523438 301.050781 403.871094 297.3125 C 406.628906 294.230469 405.871094 295.570313 409.75 290.832031 C 411.269531 288.972656 413.675781 284.675781 415.164063 283.449219 Z M 470.921875 259.855469 C 471.023438 254.351563 475.960938 246.171875 470.945313 242.203125 C 466.203125 238.449219 457.878906 241.542969 452.832031 242.980469 C 455.492188 249.710938 454.101563 254.207031 452.378906 262.378906 C 451.023438 268.816406 449.472656 275.328125 447.816406 281.640625 C 446.683594 285.953125 442.679688 297.097656 445.046875 300.773438 C 448.386719 305.949219 457.847656 304.195313 463.527344 302.234375 C 462.867188 297.035156 460.777344 298.507813 465.046875 288.300781 C 466.886719 283.894531 468.734375 280.207031 470.980469 276.144531 C 472.976563 272.53125 479.355469 262.515625 483.355469 261.117188 C 486.589844 259.988281 487.957031 262.101563 489.308594 263.902344 C 496.589844 259.371094 506.054688 237.699219 492.167969 239.984375 C 483.773438 241.363281 475.453125 253.722656 470.921875 259.855469 "/>
<path style=" stroke:none;fill-rule:evenodd;fill:rgb(100%,83.59375%,1.177979%);fill-opacity:1;" d="M 50.550781 377.453125 C 201.515625 377.453125 352.476563 377.453125 503.4375 377.453125 C 514.734375 377.453125 522.578125 378.429688 531.234375 373.023438 C 535.925781 370.09375 544 361.59375 544.035156 353.742188 C 542.476563 354.804688 541.675781 356.351563 540.167969 357.6875 C 526.164063 370.089844 513.96875 367.453125 494.164063 367.453125 L 50.585938 367.453125 L 50.550781 377.453125 "/>
</g>
</svg>
