<?xml version="1.0" encoding="UTF-8"?>
<!DOCTYPE svg PUBLIC "-//W3C//DTD SVG 1.1//EN" "http://www.w3.org/Graphics/SVG/1.1/DTD/svg11.dtd">
<!-- Creator: CorelDRAW 2019 (64-Bit) -->
<svg xmlns="http://www.w3.org/2000/svg" xml:space="preserve" width="645px" height="240px" version="1.1" style="shape-rendering:geometricPrecision; text-rendering:geometricPrecision; image-rendering:optimizeQuality; fill-rule:evenodd; clip-rule:evenodd"
viewBox="0 0 645 240.11"
 xmlns:xlink="http://www.w3.org/1999/xlink"
 xmlns:xodm="http://www.corel.com/coreldraw/odm/2003">
 <defs>
  <style type="text/css">
   <![CDATA[
    .fil1 {fill:#EC6722}
    .fil0 {fill:#007697}
   ]]>
  </style>
 </defs>
 <g id="Layer_x0020_1">
  <metadata id="CorelCorpID_0Corel-Layer"/>
  <path class="fil0" d="M221.82 0c7.52,5.15 15.17,12.96 15.17,20.5l0 132.97c0,7.45 -7.03,17.99 -13.42,22.19 22.56,0 45.13,0 67.69,0 43.8,-1.81 70.36,-17.62 73.54,-50.78 2.22,-23.25 -10.06,-41.33 -40.25,-51.53 15.06,-5.73 23.16,-18.21 23.9,-35.42 1.27,-29.6 -33.18,-37.93 -54.85,-37.93l-71.78 0zm42.01 71.2l0 -55.44 20.78 0c23.56,0 34.67,11.56 34.66,28.99 0,17.43 -15.94,26.45 -35.83,26.45l-19.61 0zm22.15 87.53l-22.15 0 0 -71.78 25.1 0c37.38,0 48.69,22.48 46.68,40.85 -2,18.38 -17.79,30.93 -49.63,30.93zm138.42 -158.73l-36.78 0c8.18,9.1 11.74,13.88 11.74,27.99l0 121.18c0,13.95 -6.18,22.52 -15.06,28.58l48.95 0c-7.27,-4.44 -15.09,-13.15 -15.09,-28.91l0 -107.04c24.72,33.02 49.45,66.05 74.17,99.08 14.02,18.34 30.27,33.89 49.22,46.07l0 -159.6c0,-15.98 6.45,-22.08 15.07,-27.35l-47.72 0c8.65,6.42 13.24,13.66 13.24,26.72l0 106.87 -97.74 -133.59zm159.31 177.75c9.9,-6.57 14.93,-14.28 14.93,-24.28l0 -126.93c0,-15 -4.33,-18.4 -12.83,-26.54l56.49 0c-9.75,5.49 -16.59,16.7 -16.59,26.54l0 126.58c0,9.71 5.75,18.61 13.55,24.63l-55.55 0z"/>
  <path class="fil1" d="M0 0l54.53 0c-2.85,4.89 -5,15.88 0.51,40.56 4.9,21.94 19.07,44.82 33.86,62.91l-18.58 15.25 -70.32 -88.35 0 -30.37zm79.63 0l96 0 0 23.26c-7.43,-4.34 -20.97,-8.53 -40.85,-0.58 -32.08,12.84 -34.83,50.42 -34.83,50.42 -17.75,-21.44 -29.42,-56.59 -20.32,-73.1zm96 54.12l0 69.24c-21.81,8.28 -52.41,-13.25 -60.1,-38.81 -11.14,-37.04 15.12,-50.41 33.91,-46.74 14.05,2.74 22.2,11.11 26.19,16.31zm0 80.6l0 40.92 -58.84 0 11.8 -9.69c-7.7,0.94 -22.82,-2.68 -30.18,-11.93l-20.71 -26.02 18.93 -15.55c11.64,12.83 22.72,22.04 28.98,24.81 13.42,5.92 28.53,8.77 50.02,-2.54zm-91.69 40.92l-64.27 0 40.04 -32.88c3.28,4.12 6.44,8.1 9.45,11.87 5.9,7.42 10.85,14.73 14.78,21.01zm-82.95 0l-0.99 0 0 -107.91c15.29,19.22 34.83,43.77 52.33,65.76l-51.34 42.15z"/>
  <path class="fil0" d="M607.72 226.32l0 0 3.3 -0.49c0.19,1.27 0.68,2.24 1.55,3.01 0.87,0.68 2.04,1.07 3.59,1.07 1.46,0 2.63,-0.39 3.4,-0.97 0.68,-0.58 1.07,-1.36 1.07,-2.23 0,-0.68 -0.29,-1.27 -0.97,-1.75 -0.49,-0.29 -1.65,-0.68 -3.4,-1.07 -2.43,-0.68 -4.17,-1.17 -5.05,-1.65 -0.97,-0.49 -1.75,-1.07 -2.23,-1.84 -0.49,-0.78 -0.68,-1.66 -0.68,-2.63 0,-0.87 0.19,-1.74 0.58,-2.42 0.39,-0.78 0.97,-1.36 1.65,-1.85 0.49,-0.39 1.26,-0.78 2.14,-0.97 0.87,-0.29 1.84,-0.48 2.81,-0.48 1.56,0 2.92,0.29 4.08,0.67 1.17,0.49 2.04,1.07 2.62,1.85 0.49,0.78 0.88,1.75 1.17,3.01l-3.3 0.48c-0.2,-1.06 -0.58,-1.84 -1.26,-2.42 -0.68,-0.49 -1.75,-0.78 -3.01,-0.78 -1.56,0 -2.63,0.19 -3.31,0.68 -0.68,0.58 -0.97,1.17 -0.97,1.84 0,0.39 0.2,0.78 0.39,1.17 0.29,0.29 0.68,0.58 1.26,0.87 0.39,0.1 1.36,0.39 3.01,0.88 2.33,0.58 3.98,1.07 4.86,1.55 0.97,0.39 1.75,0.97 2.23,1.75 0.49,0.68 0.78,1.65 0.78,2.82 0,1.06 -0.29,2.13 -0.97,3.1 -0.58,0.97 -1.56,1.75 -2.82,2.33 -1.16,0.49 -2.52,0.78 -4.08,0.78 -2.62,0 -4.56,-0.58 -5.82,-1.65 -1.36,-1.07 -2.24,-2.62 -2.62,-4.66zm27.77 -5.54c2.23,-0.29 3.88,-0.68 5.04,-1.06 0,-0.49 0,-0.78 0,-0.88 0,-1.36 -0.29,-2.33 -0.97,-2.91 -0.77,-0.68 -2.03,-1.07 -3.78,-1.07 -0.1,0 -0.2,0 -0.29,0 -1.36,0 -2.43,0.29 -3.11,0.78 -0.78,0.58 -1.36,1.55 -1.65,2.91l-3.3 -0.39c0.29,-1.45 0.77,-2.52 1.45,-3.4 0.68,-0.87 1.65,-1.55 3.01,-1.94 1.07,-0.39 2.24,-0.68 3.6,-0.68 0.29,-0.09 0.58,-0.09 0.77,-0.09 1.75,0 3.11,0.29 4.08,0.67 1.07,0.39 1.85,0.88 2.33,1.46 0.49,0.58 0.87,1.36 1.07,2.23 0.1,0.59 0.19,1.65 0.19,3.11l0 4.37c0,3.11 0,5.15 0.2,5.92 0.09,0.78 0.39,1.66 0.87,2.33l-3.5 0c-0.38,-0.67 -0.58,-1.45 -0.67,-2.42 -1.27,1.07 -2.43,1.84 -3.6,2.23 -0.58,0.19 -1.16,0.39 -1.74,0.49 -0.59,0.09 -1.27,0.19 -1.95,0.19 -2.13,0 -3.78,-0.58 -4.95,-1.55 -1.16,-1.07 -1.75,-2.43 -1.75,-4.08 0,-0.97 0.3,-1.85 0.68,-2.62 0.49,-0.78 0.98,-1.46 1.75,-1.95 0.68,-0.48 1.46,-0.87 2.33,-1.06 0.68,-0.2 1.65,-0.39 3.01,-0.49 0.29,-0.1 0.58,-0.1 0.88,-0.1zm0 9.13c0.87,-0.1 1.65,-0.39 2.33,-0.78 0.97,-0.48 1.74,-1.26 2.23,-2.23 0.29,-0.77 0.48,-1.94 0.48,-3.4l0 -1.16c-1.16,0.48 -2.81,0.87 -5.04,1.16 -0.1,0 -0.3,0.1 -0.39,0.1 -1.36,0.19 -2.33,0.39 -2.92,0.68 -0.58,0.19 -0.97,0.58 -1.26,1.07 -0.39,0.48 -0.48,0.97 -0.48,1.55 0,0.87 0.29,1.65 0.97,2.23 0.68,0.59 1.65,0.88 3.01,0.88 0.39,0 0.68,0 1.07,-0.1zm-634.43 2.23l0 0 0 -27.09 5.44 0 6.4 19.23c0.59,1.75 1.07,3.11 1.27,3.98 0.39,-0.97 0.87,-2.43 1.45,-4.37l6.51 -18.84 4.85 0 0 27.09 -3.49 0 0 -22.62 -7.87 22.62 -3.2 0 -7.86 -23.01 0 23.01 -3.5 0zm52.24 0l0 0 0 -27.09 3.39 0 0 27.09 -3.39 0zm-13.01 -11.65l5.53 0c-0.19,-1.65 -0.58,-2.91 -1.26,-3.78 -1.07,-1.27 -2.43,-1.85 -4.08,-1.85 -0.1,0 -0.1,0 -0.19,0 -1.46,0 -2.72,0.49 -3.69,1.46 -1.07,1.06 -1.65,2.42 -1.75,4.17l5.44 0zm0 9.42c0.09,0 0.19,0 0.29,0 1.26,0 2.23,-0.39 3.1,-0.97 0.88,-0.68 1.56,-1.65 2.14,-3.11l3.4 0.39c-0.58,2.04 -1.55,3.59 -3.01,4.76 -1.46,1.07 -3.4,1.65 -5.63,1.65 -0.1,0 -0.2,0 -0.29,0 -2.72,-0.1 -4.96,-0.97 -6.51,-2.72 -1.75,-1.75 -2.52,-4.17 -2.52,-7.38 0,-3.3 0.77,-5.92 2.52,-7.67 1.65,-1.84 3.89,-2.72 6.51,-2.81 0.09,0 0.09,0 0.09,0 2.63,0 4.76,0.97 6.41,2.71 1.75,1.75 2.53,4.28 2.53,7.58 0,0.19 0,0.48 0,0.87l-9.03 0 -5.64 0c0.1,2.14 0.78,3.79 1.85,4.95 1.07,1.07 2.33,1.65 3.79,1.75zm42.43 9.81l0 0 -0.39 -3.11c0.77,0.19 1.36,0.29 1.94,0.29 0.68,0 1.26,-0.1 1.75,-0.39 0.48,-0.19 0.78,-0.58 1.07,-1.06 0.29,-0.3 0.58,-1.07 1.07,-2.43 0,-0.2 0.09,-0.49 0.29,-0.78l-7.48 -19.71 3.59 0 4.08 11.36c0.58,1.46 1.07,3.01 1.46,4.56 0.38,-1.55 0.77,-3.01 1.36,-4.46l4.17 -11.46 3.3 0 -7.47 20c-0.78,2.14 -1.36,3.6 -1.85,4.47 -0.58,1.07 -1.26,1.84 -2.04,2.33 -0.77,0.58 -1.65,0.78 -2.72,0.78 -0.68,0 -1.36,-0.1 -2.13,-0.39zm-13.4 -18.94c2.23,-0.29 3.88,-0.68 5.05,-1.06 0,-0.49 0,-0.78 0,-0.88 0,-1.36 -0.29,-2.33 -0.97,-2.91 -0.88,-0.68 -2.14,-1.07 -3.79,-1.07 -0.1,0 -0.19,0 -0.29,0 -1.46,0 -2.43,0.29 -3.21,0.78 -0.68,0.58 -1.26,1.55 -1.65,2.91l-3.2 -0.39c0.29,-1.45 0.78,-2.52 1.46,-3.4 0.68,-0.87 1.65,-1.55 2.91,-1.94 1.07,-0.39 2.33,-0.68 3.69,-0.68 0.19,-0.09 0.48,-0.09 0.78,-0.09 1.64,0 3,0.29 4.07,0.67 1.07,0.39 1.85,0.88 2.33,1.46 0.49,0.58 0.88,1.36 1.07,2.23 0.1,0.59 0.1,1.65 0.1,3.11l0 4.37c0,3.11 0.1,5.15 0.29,5.92 0.1,0.78 0.39,1.66 0.78,2.33l-3.5 0c-0.29,-0.67 -0.48,-1.45 -0.58,-2.42 -1.26,1.07 -2.43,1.84 -3.59,2.23 -0.59,0.19 -1.17,0.39 -1.75,0.49 -0.68,0.09 -1.26,0.19 -1.94,0.19 -2.14,0 -3.79,-0.58 -4.96,-1.55 -1.16,-1.07 -1.74,-2.43 -1.74,-4.08 0,-0.97 0.19,-1.85 0.68,-2.62 0.38,-0.78 0.97,-1.46 1.65,-1.95 0.77,-0.48 1.55,-0.87 2.42,-1.06 0.68,-0.2 1.65,-0.39 3.01,-0.49 0.3,-0.1 0.59,-0.1 0.88,-0.1zm0 9.13c0.78,-0.1 1.55,-0.39 2.33,-0.78 0.97,-0.48 1.65,-1.26 2.13,-2.23 0.39,-0.77 0.59,-1.94 0.59,-3.4l0 -1.16c-1.17,0.48 -2.82,0.87 -5.05,1.16 -0.2,0 -0.29,0.1 -0.39,0.1 -1.36,0.19 -2.33,0.39 -2.91,0.68 -0.59,0.19 -1.07,0.58 -1.36,1.07 -0.29,0.48 -0.39,0.97 -0.39,1.55 0,0.87 0.29,1.65 0.97,2.23 0.68,0.59 1.65,0.88 2.91,0.88 0.39,0 0.78,0 1.17,-0.1zm93.89 2.23l0 0 0 -27.09 3.69 0 14.27 21.27 0 -21.27 3.4 0 0 27.09 -3.69 0 -14.17 -21.26 0 21.26 -3.5 0zm-19.32 0l0 0 0 -19.61 3.4 0 0 19.61 -3.4 0zm0 -23.2l0 0 0 -3.89 3.4 0 0 3.89 -3.4 0zm-21.07 23.2l0 0 0 -19.61 3.01 0 0 2.82c1.45,-2.14 3.59,-3.3 6.31,-3.3 1.17,0 2.23,0.29 3.2,0.67 0.97,0.39 1.75,0.98 2.24,1.66 0.48,0.67 0.87,1.55 1.06,2.52 0.1,0.58 0.2,1.65 0.2,3.2l0 12.04 -3.4 0 0 -11.94c0,-1.36 -0.1,-2.33 -0.39,-3.01 -0.19,-0.68 -0.68,-1.26 -1.36,-1.65 -0.68,-0.39 -1.36,-0.58 -2.33,-0.58 -1.36,0 -2.62,0.48 -3.59,1.36 -1.07,0.87 -1.55,2.62 -1.55,5.14l0 10.68 -3.4 0zm-13.5 -11.36c2.23,-0.29 3.89,-0.68 5.05,-1.06 0,-0.49 0,-0.78 0,-0.88 0,-1.36 -0.29,-2.33 -0.97,-2.91 -0.87,-0.68 -2.14,-1.07 -3.79,-1.07 -0.09,0 -0.19,0 -0.29,0 -1.45,0 -2.52,0.29 -3.2,0.78 -0.68,0.58 -1.26,1.55 -1.65,2.91l-3.21 -0.39c0.29,-1.45 0.78,-2.52 1.46,-3.4 0.68,-0.87 1.65,-1.55 2.91,-1.94 1.07,-0.39 2.33,-0.68 3.69,-0.68 0.2,-0.09 0.49,-0.09 0.78,-0.09 1.65,0 3.01,0.29 4.08,0.67 1.07,0.39 1.84,0.88 2.33,1.46 0.48,0.58 0.77,1.36 1.06,2.23 0.1,0.59 0.1,1.65 0.1,3.11l0 4.37c0,3.11 0.1,5.15 0.2,5.92 0.19,0.78 0.48,1.66 0.87,2.33l-3.49 0c-0.3,-0.67 -0.59,-1.45 -0.68,-2.42 -1.17,1.07 -2.34,1.84 -3.5,2.23 -0.58,0.19 -1.16,0.39 -1.75,0.49 -0.68,0.09 -1.26,0.19 -1.94,0.19 -2.14,0 -3.79,-0.58 -4.95,-1.55 -1.17,-1.07 -1.75,-2.43 -1.75,-4.08 0,-0.97 0.19,-1.85 0.68,-2.62 0.39,-0.78 0.97,-1.46 1.65,-1.95 0.78,-0.48 1.55,-0.87 2.43,-1.06 0.68,-0.2 1.65,-0.39 2.91,-0.49 0.39,-0.1 0.68,-0.1 0.97,-0.1zm0 9.13c0.78,-0.1 1.56,-0.39 2.23,-0.78 1.07,-0.48 1.75,-1.26 2.24,-2.23 0.39,-0.77 0.58,-1.94 0.58,-3.4l0 -1.16c-1.16,0.48 -2.91,0.87 -5.05,1.16 -0.19,0 -0.29,0.1 -0.39,0.1 -1.36,0.19 -2.33,0.39 -2.91,0.68 -0.58,0.19 -1.07,0.58 -1.36,1.07 -0.29,0.48 -0.48,0.97 -0.48,1.55 0,0.87 0.38,1.65 1.06,2.23 0.68,0.59 1.65,0.88 2.92,0.88 0.39,0 0.77,0 1.16,-0.1zm88.84 -9.42l5.54 0c-0.19,-1.65 -0.58,-2.91 -1.26,-3.78 -1.07,-1.27 -2.43,-1.85 -4.18,-1.85 0,0 0,0 -0.1,0 -1.45,0 -2.71,0.49 -3.69,1.46 -1.06,1.06 -1.65,2.42 -1.74,4.17l5.43 0zm0 9.42c0.1,0 0.2,0 0.3,0 1.26,0 2.23,-0.39 3.1,-0.97 0.88,-0.68 1.56,-1.65 2.04,-3.11l3.5 0.39c-0.59,2.04 -1.56,3.59 -3.01,4.76 -1.46,1.07 -3.4,1.65 -5.63,1.65 -0.1,0 -0.2,0 -0.3,0 -2.71,-0.1 -4.95,-0.97 -6.6,-2.72 -1.65,-1.75 -2.52,-4.17 -2.52,-7.38 0,-3.3 0.87,-5.92 2.62,-7.67 1.65,-1.84 3.88,-2.72 6.5,-2.81 0,0 0.1,0 0.1,0 2.62,0 4.76,0.97 6.41,2.71 1.65,1.75 2.52,4.28 2.52,7.58 0,0.19 0,0.48 0,0.87l-9.03 0 -5.63 0c0.1,2.14 0.68,3.79 1.85,4.95 0.97,1.07 2.33,1.65 3.78,1.75zm20.59 -0.48c1.55,0 2.81,-0.59 3.88,-1.75 1.07,-1.17 1.56,-3.01 1.56,-5.54 0,-2.42 -0.59,-4.27 -1.65,-5.43 -0.98,-1.27 -2.24,-1.85 -3.79,-1.85 -1.56,0 -2.72,0.58 -3.79,1.75 -1.07,1.26 -1.55,3.01 -1.55,5.44 0,2.52 0.48,4.37 1.55,5.63 0.97,1.16 2.23,1.75 3.79,1.75zm0 7.96c1.36,-0.1 2.43,-0.39 3.2,-0.97 0.88,-0.59 1.36,-1.46 1.75,-2.53 0.1,-0.68 0.2,-2.13 0.2,-4.27 -1.36,1.65 -3.11,2.43 -5.15,2.52 -0.1,0 -0.19,0 -0.29,0 -2.72,0 -4.76,-0.97 -6.31,-2.91 -1.46,-1.94 -2.14,-4.27 -2.14,-6.99 0,-1.84 0.29,-3.59 0.97,-5.15 0.68,-1.65 1.65,-2.81 2.91,-3.69 1.36,-0.87 2.82,-1.35 4.57,-1.35 0.1,0 0.19,0 0.29,0 2.23,0.09 3.98,1.06 5.44,2.81l0 -2.33 3.1 0 0 16.99c0,3.01 -0.29,5.25 -0.97,6.51 -0.58,1.26 -1.55,2.23 -2.91,3.01 -1.26,0.68 -2.82,1.07 -4.66,1.07 -0.1,0 -0.19,0 -0.39,0 -2.33,0 -4.17,-0.49 -5.63,-1.56 -1.46,-1.07 -2.14,-2.62 -2.14,-4.75l3.3 0.48c0.1,0.97 0.49,1.75 1.07,2.14 0.88,0.68 2.04,0.97 3.4,0.97 0.2,0 0.29,0 0.39,0zm77 -5.25l0 0 0 -27.09 3.59 0 0 13.5 13.4 -13.5 4.85 0 -11.36 10.98 11.85 16.11 -4.66 0 -9.71 -13.69 -4.37 4.37 0 9.32 -3.59 0zm-20.49 0l0 0 0 -3.78 3.79 0 0 3.78c0,1.46 -0.2,2.53 -0.78,3.4 -0.49,0.88 -1.26,1.56 -2.33,1.94l-0.87 -1.35c0.68,-0.3 1.16,-0.78 1.55,-1.36 0.29,-0.59 0.48,-1.46 0.48,-2.63l-1.84 0zm-9.23 0l0 0 0 -19.61 3.31 0 0 19.61 -3.31 0zm0 -23.2l0 0 0 -3.89 3.31 0 0 3.89 -3.31 0zm-12.71 23.2l0 0 0 -19.61 3 0 0 3.01c0.78,-1.46 1.46,-2.33 2.14,-2.82 0.59,-0.38 1.36,-0.67 2.14,-0.67 1.07,0 2.23,0.38 3.4,1.06l-1.17 3.11c-0.78,-0.48 -1.65,-0.68 -2.43,-0.68 -0.68,0 -1.35,0.2 -1.94,0.68 -0.58,0.39 -0.97,0.97 -1.26,1.75 -0.39,1.26 -0.58,2.52 -0.58,3.88l0 10.29 -3.3 0zm-13.02 -11.65l5.44 0c-0.1,-1.65 -0.48,-2.91 -1.16,-3.78 -1.07,-1.27 -2.53,-1.85 -4.18,-1.85 0,0 -0.1,0 -0.1,0 -1.45,0 -2.72,0.49 -3.78,1.46 -0.97,1.06 -1.56,2.42 -1.65,4.17l5.43 0zm0 9.42c0.1,0 0.2,0 0.3,0 1.16,0 2.23,-0.39 3.1,-0.97 0.88,-0.68 1.56,-1.65 2.04,-3.11l3.4 0.39c-0.48,2.04 -1.46,3.59 -3.01,4.76 -1.46,1.07 -3.3,1.65 -5.53,1.65 -0.1,0 -0.2,0 -0.3,0 -2.72,-0.1 -4.95,-0.97 -6.6,-2.72 -1.65,-1.75 -2.52,-4.17 -2.52,-7.38 0,-3.3 0.87,-5.92 2.62,-7.67 1.65,-1.84 3.78,-2.72 6.5,-2.81 0,0 0,0 0.1,0 2.62,0 4.76,0.97 6.41,2.71 1.65,1.75 2.52,4.28 2.52,7.58 0,0.19 0,0.48 -0.09,0.87l-8.94 0 -5.63 0c0.1,2.14 0.68,3.79 1.85,4.95 0.97,1.07 2.23,1.65 3.78,1.75zm88.26 -9.42l5.54 0c-0.19,-1.65 -0.58,-2.91 -1.26,-3.78 -1.07,-1.27 -2.43,-1.85 -4.18,-1.85 0,0 0,0 -0.1,0 -1.45,0 -2.71,0.49 -3.68,1.46 -1.07,1.06 -1.66,2.42 -1.75,4.17l5.43 0zm0 9.42c0.1,0 0.2,0 0.3,0 1.16,0 2.23,-0.39 3.1,-0.97 0.88,-0.68 1.56,-1.65 2.04,-3.11l3.5 0.39c-0.59,2.04 -1.56,3.59 -3.01,4.76 -1.56,1.07 -3.4,1.65 -5.63,1.65 -0.1,0 -0.2,0 -0.3,0 -2.71,-0.1 -4.95,-0.97 -6.5,-2.72 -1.65,-1.75 -2.52,-4.17 -2.52,-7.38 0,-3.3 0.87,-5.92 2.62,-7.67 1.55,-1.84 3.78,-2.72 6.4,-2.81 0,0 0.1,0 0.1,0 2.62,0 4.76,0.97 6.41,2.71 1.65,1.75 2.53,4.28 2.53,7.58 0,0.19 0,0.48 0,0.87l-9.04 0 -5.53 0c0,2.14 0.58,3.79 1.75,4.95 0.97,1.07 2.23,1.65 3.78,1.75zm21.37 -17.77c0.19,-0.09 0.29,-0.09 0.38,-0.09 1.27,0 2.34,0.29 3.5,0.77 1.07,0.49 1.94,1.17 2.62,2.04 0.68,0.88 1.26,1.94 1.65,3.2 0.39,1.27 0.58,2.63 0.58,3.99 0,3.39 -0.87,6.02 -2.52,7.76 -1.65,1.85 -3.69,2.82 -6.02,2.82 0,0 -0.1,0 -0.19,0 -2.14,-0.1 -3.89,-1.07 -5.25,-2.91l0 2.42 -3.01 0 0 -27.09 3.3 0 0 9.71c1.27,-1.65 3.01,-2.62 4.96,-2.62zm0 17.77c1.45,-0.1 2.72,-0.68 3.69,-1.94 1.06,-1.26 1.65,-3.11 1.65,-5.63 0,-2.53 -0.49,-4.47 -1.56,-5.63 -0.97,-1.27 -2.23,-1.85 -3.69,-1.85 0,0 0,0 -0.09,0 -1.36,0 -2.63,0.58 -3.69,1.85 -1.07,1.26 -1.56,3.1 -1.56,5.53 0,2.33 0.29,3.98 0.97,5.05 1.07,1.75 2.43,2.62 4.28,2.62zm33.88 2.23l0 0 0 -19.61 2.91 0 0 2.82c1.46,-2.14 3.6,-3.3 6.32,-3.3 1.16,0 2.23,0.29 3.2,0.67 1.07,0.39 1.75,0.98 2.24,1.66 0.48,0.67 0.87,1.55 1.06,2.52 0.1,0.58 0.2,1.65 0.2,3.2l0 12.04 -3.3 0 0 -11.94c0,-1.36 -0.2,-2.33 -0.39,-3.01 -0.29,-0.68 -0.78,-1.26 -1.46,-1.65 -0.58,-0.39 -1.36,-0.58 -2.33,-0.58 -1.36,0 -2.62,0.48 -3.59,1.36 -1.07,0.87 -1.56,2.62 -1.56,5.14l0 10.68 -3.3 0zm-13.59 -11.36c2.23,-0.29 3.88,-0.68 5.05,-1.06 0,-0.49 0,-0.78 0,-0.88 0,-1.36 -0.29,-2.33 -0.97,-2.91 -0.88,-0.68 -2.14,-1.07 -3.79,-1.07 -0.1,0 -0.19,0 -0.29,0 -1.46,0 -2.43,0.29 -3.21,0.78 -0.68,0.58 -1.26,1.55 -1.65,2.91l-3.2 -0.39c0.29,-1.45 0.78,-2.52 1.46,-3.4 0.68,-0.87 1.65,-1.55 2.91,-1.94 1.07,-0.39 2.33,-0.68 3.69,-0.68 0.19,-0.09 0.48,-0.09 0.78,-0.09 1.65,0 3.01,0.29 4.07,0.67 1.07,0.39 1.85,0.88 2.33,1.46 0.49,0.58 0.88,1.36 1.07,2.23 0.1,0.59 0.1,1.65 0.1,3.11l0 4.37c0,3.11 0.1,5.15 0.29,5.92 0.1,0.78 0.39,1.66 0.78,2.33l-3.5 0c-0.29,-0.67 -0.48,-1.45 -0.58,-2.42 -1.26,1.07 -2.43,1.84 -3.59,2.23 -0.58,0.19 -1.17,0.39 -1.75,0.49 -0.68,0.09 -1.26,0.19 -1.94,0.19 -2.14,0 -3.79,-0.58 -4.95,-1.55 -1.17,-1.07 -1.75,-2.43 -1.75,-4.08 0,-0.97 0.19,-1.85 0.68,-2.62 0.39,-0.78 0.97,-1.46 1.65,-1.95 0.78,-0.48 1.55,-0.87 2.42,-1.06 0.68,-0.2 1.66,-0.39 3.02,-0.49 0.29,-0.1 0.58,-0.1 0.87,-0.1zm0 9.13c0.78,-0.1 1.55,-0.39 2.23,-0.78 1.07,-0.48 1.75,-1.26 2.24,-2.23 0.38,-0.77 0.58,-1.94 0.58,-3.4l0 -1.16c-1.17,0.48 -2.91,0.87 -5.05,1.16 -0.2,0 -0.29,0.1 -0.39,0.1 -1.36,0.19 -2.33,0.39 -2.91,0.68 -0.59,0.19 -1.07,0.58 -1.36,1.07 -0.29,0.48 -0.39,0.97 -0.39,1.55 0,0.87 0.29,1.65 0.97,2.23 0.68,0.59 1.65,0.88 2.91,0.88 0.39,0 0.78,0 1.17,-0.1zm42.14 -0.48c1.55,0 2.81,-0.59 3.79,-1.75 1.06,-1.17 1.55,-3.01 1.55,-5.54 0,-2.42 -0.49,-4.27 -1.55,-5.43 -1.07,-1.27 -2.34,-1.85 -3.79,-1.85 0,0 0,0 -0.1,0 -1.45,0 -2.72,0.58 -3.78,1.75 -0.98,1.26 -1.56,3.01 -1.56,5.44 0,2.52 0.58,4.37 1.56,5.63 1.06,1.16 2.33,1.75 3.88,1.75zm0 7.96c1.36,-0.1 2.43,-0.39 3.2,-0.97 0.78,-0.59 1.36,-1.46 1.65,-2.53 0.2,-0.68 0.29,-2.13 0.29,-4.27 -1.45,1.65 -3.1,2.43 -5.14,2.52 -0.1,0 -0.19,0 -0.29,0 -2.72,0 -4.86,-0.97 -6.31,-2.91 -1.46,-1.94 -2.24,-4.27 -2.24,-6.99 0,-1.84 0.39,-3.59 1.07,-5.15 0.68,-1.65 1.65,-2.81 2.91,-3.69 1.27,-0.87 2.82,-1.35 4.57,-1.35 0.1,0 0.19,0 0.29,0 2.14,0.09 3.98,1.06 5.44,2.81l0 -2.33 3.1 0 0 16.99c0,3.01 -0.39,5.25 -0.97,6.51 -0.68,1.26 -1.65,2.23 -3.01,3.01 -1.26,0.68 -2.72,1.07 -4.56,1.07 -0.1,0 -0.29,0 -0.39,0 -2.33,0 -4.27,-0.49 -5.63,-1.56 -1.46,-1.07 -2.14,-2.62 -2.14,-4.75l3.21 0.48c0.19,0.97 0.58,1.75 1.16,2.14 0.88,0.68 1.94,0.97 3.4,0.97 0.1,0 0.29,0 0.39,0zm21.07 -7.96c1.55,0 2.81,-0.59 3.78,-1.75 1.07,-1.17 1.56,-3.01 1.56,-5.54 0,-2.42 -0.49,-4.27 -1.56,-5.43 -1.06,-1.27 -2.32,-1.85 -3.78,-1.85 0,0 -0.1,0 -0.1,0 -1.46,0 -2.72,0.58 -3.78,1.75 -0.98,1.26 -1.56,3.01 -1.56,5.44 0,2.52 0.58,4.37 1.56,5.63 1.06,1.16 2.32,1.75 3.88,1.75zm0 7.96c1.36,-0.1 2.43,-0.39 3.2,-0.97 0.78,-0.59 1.36,-1.46 1.65,-2.53 0.2,-0.68 0.29,-2.13 0.29,-4.27 -1.45,1.65 -3.1,2.43 -5.14,2.52 -0.1,0 -0.2,0 -0.29,0 -2.72,0 -4.86,-0.97 -6.31,-2.91 -1.46,-1.94 -2.24,-4.27 -2.24,-6.99 0,-1.84 0.39,-3.59 1.07,-5.15 0.68,-1.65 1.65,-2.81 2.91,-3.69 1.27,-0.87 2.82,-1.35 4.57,-1.35 0.09,0 0.19,0 0.29,0 2.14,0.09 3.98,1.06 5.44,2.81l0 -2.33 3 0 0 16.99c0,3.01 -0.28,5.25 -0.87,6.51 -0.68,1.26 -1.65,2.23 -3.01,3.01 -1.26,0.68 -2.81,1.07 -4.56,1.07 -0.1,0 -0.29,0 -0.39,0 -2.33,0 -4.27,-0.49 -5.63,-1.56 -1.46,-1.07 -2.23,-2.62 -2.14,-4.75l3.21 0.48c0.19,0.97 0.58,1.75 1.16,2.14 0.78,0.68 1.94,0.97 3.4,0.97 0.1,0 0.29,0 0.39,0zm20.97 -16.61c2.24,-0.29 3.98,-0.68 5.05,-1.06 0,-0.49 0,-0.78 0,-0.88 0,-1.36 -0.29,-2.33 -0.87,-2.91 -0.88,-0.68 -2.14,-1.07 -3.79,-1.07 -0.1,0 -0.29,0 -0.39,0 -1.36,0 -2.43,0.29 -3.11,0.78 -0.77,0.58 -1.26,1.55 -1.65,2.91l-3.3 -0.39c0.39,-1.45 0.88,-2.52 1.46,-3.4 0.68,-0.87 1.75,-1.55 3.01,-1.94 1.07,-0.39 2.23,-0.68 3.59,-0.68 0.29,-0.09 0.58,-0.09 0.87,-0.09 1.66,0 3.02,0.29 4.08,0.67 1.07,0.39 1.75,0.88 2.33,1.46 0.49,0.58 0.78,1.36 0.97,2.23 0.1,0.59 0.2,1.65 0.2,3.11l0 4.37c0,3.11 0.1,5.15 0.19,5.92 0.2,0.78 0.39,1.66 0.88,2.33l-3.5 0c-0.39,-0.67 -0.58,-1.45 -0.68,-2.42 -1.26,1.07 -2.43,1.84 -3.59,2.23 -0.49,0.19 -1.17,0.39 -1.75,0.49 -0.58,0.09 -1.26,0.19 -1.84,0.19 -2.24,0 -3.89,-0.58 -5.05,-1.55 -1.07,-1.07 -1.65,-2.43 -1.65,-4.08 0,-0.97 0.19,-1.85 0.58,-2.62 0.49,-0.78 1.07,-1.46 1.75,-1.95 0.68,-0.48 1.55,-0.87 2.42,-1.06 0.59,-0.2 1.65,-0.39 2.92,-0.49 0.29,-0.1 0.58,-0.1 0.87,-0.1zm0 9.13c0.87,-0.1 1.65,-0.39 2.33,-0.78 0.97,-0.48 1.75,-1.26 2.23,-2.23 0.3,-0.77 0.49,-1.94 0.49,-3.4l0 -1.16c-1.16,0.48 -2.81,0.87 -5.05,1.16 -0.1,0 -0.19,0.1 -0.39,0.1 -1.36,0.19 -2.33,0.39 -2.91,0.68 -0.49,0.19 -0.97,0.58 -1.26,1.07 -0.29,0.48 -0.49,0.97 -0.49,1.55 0,0.87 0.39,1.65 1.07,2.23 0.58,0.59 1.65,0.88 2.91,0.88 0.39,0 0.78,0 1.07,-0.1zm34.66 2.23l0 0 0 -19.61 3.02 0 0 2.82c1.45,-2.14 3.49,-3.3 6.21,-3.3 1.16,0 2.33,0.29 3.3,0.67 0.97,0.39 1.75,0.98 2.23,1.66 0.49,0.67 0.78,1.55 0.97,2.52 0.2,0.58 0.2,1.65 0.2,3.2l0 12.04 -3.3 0 0 -11.94c0,-1.36 -0.1,-2.33 -0.39,-3.01 -0.29,-0.68 -0.68,-1.26 -1.36,-1.65 -0.68,-0.39 -1.46,-0.58 -2.33,-0.58 -1.46,0 -2.62,0.48 -3.69,1.36 -1.07,0.87 -1.55,2.62 -1.55,5.14l0 10.68 -3.31 0zm-13.59 -11.36c2.23,-0.29 3.98,-0.68 5.05,-1.06 0,-0.49 0,-0.78 0,-0.88 0,-1.36 -0.29,-2.33 -0.87,-2.91 -0.88,-0.68 -2.14,-1.07 -3.79,-1.07 -0.2,0 -0.29,0 -0.39,0 -1.36,0 -2.43,0.29 -3.11,0.78 -0.77,0.58 -1.26,1.55 -1.65,2.91l-3.3 -0.39c0.29,-1.45 0.78,-2.52 1.46,-3.4 0.68,-0.87 1.75,-1.55 3.01,-1.94 1.07,-0.39 2.23,-0.68 3.59,-0.68 0.29,-0.09 0.58,-0.09 0.88,-0.09 1.65,0 3,0.29 4.07,0.67 0.97,0.39 1.75,0.88 2.24,1.46 0.58,0.58 0.87,1.36 1.06,2.23 0.1,0.59 0.2,1.65 0.2,3.11l0 4.37c0,3.11 0.1,5.15 0.19,5.92 0.1,0.78 0.39,1.66 0.88,2.33l-3.5 0c-0.39,-0.67 -0.58,-1.45 -0.68,-2.42 -1.26,1.07 -2.43,1.84 -3.59,2.23 -0.58,0.19 -1.17,0.39 -1.75,0.49 -0.58,0.09 -1.26,0.19 -1.84,0.19 -2.24,0 -3.89,-0.58 -5.05,-1.55 -1.17,-1.07 -1.75,-2.43 -1.75,-4.08 0,-0.97 0.29,-1.85 0.68,-2.62 0.48,-0.78 1.07,-1.46 1.75,-1.95 0.68,-0.48 1.45,-0.87 2.43,-1.06 0.58,-0.2 1.55,-0.39 2.91,-0.49 0.29,-0.1 0.58,-0.1 0.87,-0.1zm0 9.13c0.88,-0.1 1.65,-0.39 2.33,-0.78 0.97,-0.48 1.75,-1.26 2.24,-2.23 0.29,-0.77 0.48,-1.94 0.48,-3.4l0 -1.16c-1.17,0.48 -2.82,0.87 -5.05,1.16 -0.09,0 -0.19,0.1 -0.39,0.1 -1.36,0.19 -2.33,0.39 -2.91,0.68 -0.58,0.19 -0.97,0.58 -1.26,1.07 -0.29,0.48 -0.49,0.97 -0.49,1.55 0,0.87 0.39,1.65 0.97,2.23 0.68,0.59 1.65,0.88 3.01,0.88 0.39,0 0.68,0 1.07,-0.1zm55.06 -24.86l0.58 0c2.04,0 3.69,0.3 4.95,0.88 1.26,0.48 2.23,1.36 2.91,2.52 0.78,1.07 1.07,2.33 1.07,3.6 0,1.06 -0.29,2.23 -0.87,3.2 -0.68,1.07 -1.66,1.84 -2.92,2.52 1.65,0.49 2.92,1.27 3.79,2.43 0.88,1.17 1.36,2.52 1.36,4.08 0,1.26 -0.29,2.52 -0.78,3.59 -0.58,1.07 -1.26,1.94 -2.04,2.53 -0.77,0.58 -1.74,0.97 -2.91,1.36 -1.26,0.29 -2.72,0.38 -4.47,0.38l-0.67 0 -9.62 0 0 -27.09 9.62 0zm0 11.36c1.45,0 2.62,-0.09 3.3,-0.29 0.87,-0.29 1.55,-0.68 2.04,-1.36 0.48,-0.58 0.67,-1.36 0.67,-2.33 0,-0.87 -0.19,-1.74 -0.67,-2.42 -0.39,-0.68 -1.07,-1.07 -1.85,-1.36 -0.68,-0.2 -1.85,-0.39 -3.49,-0.39 -0.2,0 -0.39,0 -0.59,0l-5.44 0 0 8.15 5.83 0c0.1,0 0.1,0 0.2,0zm0 12.53l0.67 0c1.17,0 2.04,0 2.53,-0.1 0.78,-0.19 1.46,-0.39 2.04,-0.77 0.58,-0.3 0.97,-0.78 1.36,-1.46 0.38,-0.68 0.58,-1.46 0.58,-2.33 0,-0.97 -0.29,-1.85 -0.78,-2.62 -0.58,-0.78 -1.26,-1.26 -2.23,-1.56 -0.87,-0.29 -2.23,-0.48 -3.88,-0.48l-0.29 0 -6.03 0 0 9.32 6.03 0zm36.41 3.2l0 0 0 -19.61 3.01 0 0 2.82c1.45,-2.14 3.49,-3.3 6.21,-3.3 1.26,0 2.33,0.29 3.3,0.67 0.97,0.39 1.75,0.98 2.23,1.66 0.49,0.67 0.88,1.55 1.07,2.52 0.1,0.58 0.2,1.65 0.2,3.2l0 12.04 -3.4 0 0 -11.94c0,-1.36 -0.1,-2.33 -0.39,-3.01 -0.19,-0.68 -0.68,-1.26 -1.36,-1.65 -0.68,-0.39 -1.46,-0.58 -2.33,-0.58 -1.36,0 -2.62,0.48 -3.69,1.36 -0.97,0.87 -1.55,2.62 -1.55,5.14l0 10.68 -3.3 0zm-13.6 -11.36c2.24,-0.29 3.98,-0.68 5.05,-1.06 0.1,-0.49 0.1,-0.78 0.1,-0.88 0,-1.36 -0.39,-2.33 -0.97,-2.91 -0.88,-0.68 -2.14,-1.07 -3.79,-1.07 -0.1,0 -0.29,0 -0.39,0 -1.36,0 -2.42,0.29 -3.1,0.78 -0.78,0.58 -1.27,1.55 -1.66,2.91l-3.2 -0.39c0.29,-1.45 0.78,-2.52 1.46,-3.4 0.68,-0.87 1.65,-1.55 2.91,-1.94 1.07,-0.39 2.23,-0.68 3.59,-0.68 0.29,-0.09 0.58,-0.09 0.88,-0.09 1.65,0 3.01,0.29 4.07,0.67 1.07,0.39 1.85,0.88 2.33,1.46 0.49,0.58 0.78,1.36 0.98,2.23 0.09,0.59 0.19,1.65 0.19,3.11l0 4.37c0,3.11 0.1,5.15 0.19,5.92 0.2,0.78 0.49,1.66 0.88,2.33l-3.5 0c-0.29,-0.67 -0.58,-1.45 -0.68,-2.42 -1.16,1.07 -2.42,1.84 -3.49,2.23 -0.59,0.19 -1.17,0.39 -1.85,0.49 -0.58,0.09 -1.26,0.19 -1.84,0.19 -2.14,0 -3.79,-0.58 -4.95,-1.55 -1.17,-1.07 -1.75,-2.43 -1.75,-4.08 0,-0.97 0.19,-1.85 0.58,-2.62 0.49,-0.78 1.07,-1.46 1.75,-1.95 0.68,-0.48 1.55,-0.87 2.43,-1.06 0.58,-0.2 1.65,-0.39 2.91,-0.49 0.29,-0.1 0.58,-0.1 0.87,-0.1zm0 9.13c0.88,-0.1 1.65,-0.39 2.33,-0.78 0.97,-0.48 1.75,-1.26 2.24,-2.23 0.38,-0.77 0.48,-1.94 0.48,-3.4l0 -1.16c-1.07,0.48 -2.81,0.87 -5.05,1.16 -0.09,0 -0.19,0.1 -0.39,0.1 -1.36,0.19 -2.33,0.39 -2.81,0.68 -0.58,0.19 -1.07,0.58 -1.36,1.07 -0.29,0.48 -0.49,0.97 -0.49,1.55 0,0.87 0.39,1.65 1.07,2.23 0.58,0.59 1.65,0.88 2.92,0.88 0.38,0 0.77,0 1.06,-0.1zm42.24 -0.48c1.46,0 2.81,-0.59 3.79,-1.75 1.06,-1.17 1.55,-3.01 1.55,-5.54 0,-2.42 -0.49,-4.27 -1.55,-5.43 -1.07,-1.27 -2.33,-1.85 -3.79,-1.85 -0.1,0 -0.1,0 -0.1,0 -1.45,0 -2.72,0.58 -3.78,1.75 -1.07,1.26 -1.56,3.01 -1.56,5.44 0,2.52 0.49,4.37 1.56,5.63 1.06,1.16 2.33,1.75 3.88,1.75zm0 7.96c1.36,-0.1 2.33,-0.39 3.11,-0.97 0.87,-0.59 1.45,-1.46 1.74,-2.53 0.2,-0.68 0.2,-2.13 0.2,-4.27 -1.36,1.65 -3.01,2.43 -5.05,2.52 -0.1,0 -0.29,0 -0.39,0 -2.72,0 -4.76,-0.97 -6.21,-2.91 -1.46,-1.94 -2.24,-4.27 -2.24,-6.99 0,-1.84 0.29,-3.59 0.97,-5.15 0.68,-1.65 1.75,-2.81 3.01,-3.69 1.27,-0.87 2.82,-1.35 4.57,-1.35 0.1,0 0.19,0 0.29,0 2.13,0.09 3.98,1.06 5.44,2.81l0 -2.33 3.01 0 0 16.99c0,3.01 -0.29,5.25 -0.88,6.51 -0.68,1.26 -1.65,2.23 -3.01,3.01 -1.26,0.68 -2.81,1.07 -4.56,1.07 -0.19,0 -0.29,0 -0.39,0 -2.33,0 -4.27,-0.49 -5.73,-1.56 -1.45,-1.07 -2.13,-2.62 -2.04,-4.75l3.21 0.48c0.19,0.97 0.48,1.75 1.16,2.14 0.78,0.68 1.94,0.97 3.4,0.97 0.1,0 0.2,0 0.39,0z"/>
 </g>
</svg>
