<?xml version="1.0" encoding="UTF-8"?>
<!DOCTYPE svg PUBLIC "-//W3C//DTD SVG 1.1//EN" "http://www.w3.org/Graphics/SVG/1.1/DTD/svg11.dtd">
<!-- Creator: CorelDRAW 2019 (64-Bit) -->
<svg xmlns="http://www.w3.org/2000/svg" xml:space="preserve" width="283px" height="240px" version="1.1" style="shape-rendering:geometricPrecision; text-rendering:geometricPrecision; image-rendering:optimizeQuality; fill-rule:evenodd; clip-rule:evenodd"
viewBox="0 0 283 240.23"
 xmlns:xlink="http://www.w3.org/1999/xlink"
 xmlns:xodm="http://www.corel.com/coreldraw/odm/2003">
 <defs>
  <style type="text/css">
   <![CDATA[
    .fil0 {fill:#1F4396}
   ]]>
  </style>
 </defs>
 <g id="Layer_x0020_1">
  <metadata id="CorelCorpID_0Corel-Layer"/>
  <path class="fil0" d="M56.16 24.5c0,-13.53 10.97,-24.5 24.5,-24.5l121.83 0c13.53,0 24.49,10.97 24.49,24.5l0 121.83c0,13.53 -10.96,24.5 -24.49,24.5l-121.83 0c-13.53,0 -24.5,-10.97 -24.5,-24.5l0 -121.83zm29.8 129.59c-7.21,0 -13.06,-5.85 -13.06,-13.07l0 -111.18c0,-7.21 5.85,-13.06 13.06,-13.06l14.9 0c19.64,0 34.18,19.89 21.62,32.47l-36.43 36.48 31.27 32.76c15.16,15.88 -2.6,35.6 -19.42,35.6l-11.94 0zm47.29 -137.31l12.59 0c19.63,0 34.17,19.89 21.62,32.47l-36.44 36.48 66.98 68.33 -70.68 -0.01c15.18,0 24.77,-25.55 8.52,-42.47l-24.82 -25.85 28.89 -29.78c15.56,-16.04 4.27,-36.68 -6.66,-39.17zm76.98 124.24l-54.24 -55.29 28.9 -29.78c15.56,-16.04 4.26,-36.68 -6.67,-39.17l18.92 0c7.22,0 13.07,5.85 13.07,13.06l0.02 111.18zm-199.17 81.44l0 9.96 4.44 0c2.31,0 4.06,-0.44 5.25,-1.3 1.19,-0.86 1.79,-2.12 1.79,-3.77 0,-1.63 -0.55,-2.85 -1.64,-3.67 -1.09,-0.81 -2.72,-1.22 -4.89,-1.22l-4.95 0zm0 -16.98l0 9.47 3.43 0c2.39,0 4.17,-0.41 5.36,-1.21 1.18,-0.81 1.77,-2.04 1.77,-3.69 0,-1.5 -0.55,-2.63 -1.67,-3.41 -1.11,-0.77 -2.76,-1.16 -4.92,-1.16l-3.97 0zm-11.06 -7.64l17.35 0c5.13,0 8.99,0.92 11.57,2.76 2.59,1.85 3.88,4.59 3.88,8.23 0,2.44 -0.68,4.48 -2.03,6.1 -1.35,1.62 -3.32,2.79 -5.91,3.5 2.91,0.54 5.14,1.68 6.7,3.42 1.56,1.74 2.34,3.96 2.34,6.66 0,3.98 -1.42,6.93 -4.27,8.85 -2.84,1.91 -7.22,2.87 -13.14,2.87l-16.49 0 0 -42.39zm58.1 9.46l-5.49 15.89 10.8 0 -5.31 -15.89zm-6.59 -9.46l13.63 0 16.05 42.39 -12.08 0 -3.01 -8.98 -16.32 0 -3.16 8.98 -11.18 0 16.07 -42.39zm32.12 0l14.11 0 12.27 25.42c0.42,0.85 0.91,2.04 1.47,3.56 0.55,1.52 1.17,3.39 1.84,5.6 -0.35,-2.09 -0.62,-4.01 -0.79,-5.76 -0.17,-1.75 -0.25,-3.35 -0.25,-4.8l0 -24.02 10.2 0 0 42.39 -14.05 0 -12.75 -26.34c-0.59,-1.21 -1.14,-2.53 -1.64,-3.95 -0.49,-1.42 -0.95,-2.97 -1.37,-4.64 0.4,2.53 0.69,4.85 0.88,6.97 0.19,2.11 0.29,3.98 0.29,5.59l0 22.37 -10.21 0 0 -42.39zm46.87 0l11.3 0 0 18.32 13.13 -18.32 12.65 0 -15.57 19.48 17.16 22.91 -14.04 0 -13.33 -19.66 0 19.66 -11.3 0 0 -42.39zm71.55 24.62l0 9.96 4.45 0c2.3,0 4.05,-0.44 5.24,-1.3 1.2,-0.86 1.79,-2.12 1.79,-3.77 0,-1.63 -0.54,-2.85 -1.64,-3.67 -1.09,-0.81 -2.72,-1.22 -4.89,-1.22l-4.95 0zm0 -16.98l0 9.47 3.43 0c2.39,0 4.18,-0.41 5.36,-1.21 1.18,-0.81 1.78,-2.04 1.78,-3.69 0,-1.5 -0.56,-2.63 -1.68,-3.41 -1.11,-0.77 -2.75,-1.16 -4.92,-1.16l-3.97 0zm-11.06 -7.64l17.36 0c5.13,0 8.98,0.92 11.57,2.76 2.58,1.85 3.87,4.59 3.87,8.23 0,2.44 -0.67,4.48 -2.02,6.1 -1.36,1.62 -3.33,2.79 -5.91,3.5 2.9,0.54 5.13,1.68 6.69,3.42 1.56,1.74 2.34,3.96 2.34,6.66 0,3.98 -1.42,6.93 -4.26,8.85 -2.84,1.91 -7.23,2.87 -13.15,2.87l-16.49 0 0 -42.39zm51.63 7.46l0 10.87 3.97 0c2.44,0 4.28,-0.45 5.5,-1.33 1.22,-0.89 1.83,-2.22 1.83,-3.99 0,-1.91 -0.68,-3.31 -2.04,-4.21 -1.36,-0.9 -3.51,-1.34 -6.46,-1.34l-2.8 0zm-11.05 -7.46l16.84 0c5.61,0 9.77,0.91 12.49,2.73 2.72,1.82 4.08,4.59 4.08,8.31 0,2.75 -0.72,5.01 -2.15,6.78 -1.44,1.77 -3.51,2.95 -6.22,3.55 2.23,0.81 4.02,3.13 5.38,6.95l5.06 14.07 -11.78 0 -3.73 -11.6c-0.6,-1.87 -1.41,-3.16 -2.45,-3.88 -1.03,-0.71 -2.64,-1.07 -4.83,-1.07l-1.64 0 0 16.55 -11.05 0 0 -42.39zm40.13 0l11.3 0 0 42.39 -11.3 0 0 -42.39z"/>
 </g>
</svg>
