<?xml version="1.0" encoding="UTF-8"?>
<!DOCTYPE svg PUBLIC "-//W3C//DTD SVG 1.1//EN" "http://www.w3.org/Graphics/SVG/1.1/DTD/svg11.dtd">
<!-- Creator: CorelDRAW 2019 (64-Bit) -->
<svg xmlns="http://www.w3.org/2000/svg" xml:space="preserve" width="3704px" height="1080px" version="1.1" style="shape-rendering:geometricPrecision; text-rendering:geometricPrecision; image-rendering:optimizeQuality; fill-rule:evenodd; clip-rule:evenodd"
viewBox="0 0 3704 1079.97"
 xmlns:xlink="http://www.w3.org/1999/xlink"
 xmlns:xodm="http://www.corel.com/coreldraw/odm/2003">
 <defs>
  <style type="text/css">
   <![CDATA[
    .fil0 {fill:#108DE8}
    .fil2 {fill:#79BBE7}
    .fil1 {fill:white}
   ]]>
  </style>
 </defs>
 <g id="Layer_x0020_1">
  <metadata id="CorelCorpID_0Corel-Layer"/>
  <path class="fil0" d="M488.38 1.96c-178.59,16.89 -323.32,111.45 -411.22,257.41 -57.12,94.84 -83.97,207.2 -75.69,322.51 20.26,282.1 262.69,520.94 572.99,496.35 278.41,-22.07 508.12,-272.52 484.59,-580.56 -8.62,-112.78 -47.82,-205.73 -110.65,-289.66 -28.45,-38 -34.06,-38.62 -63.77,-69.73 -36.84,-38.59 -114.75,-82.89 -164.47,-102.49 -66.67,-26.29 -151.56,-41.42 -231.78,-33.83z"/>
  <path class="fil1" d="M223.21 382.62c-6.77,19.55 -2.74,236.92 -2.74,277.24 0,43.62 -8.61,57.24 59.63,80.58 180.68,61.79 359.59,-147.72 539.25,-44.06 8.33,4.8 18.47,14.65 20.85,-1.26l0.07 -279.63c0.01,-30.08 2.7,-39.5 -17.25,-53.39 -160.77,-112 -334.84,79.57 -497.97,58.08 -60.37,-7.95 -85.37,-38.75 -101.84,-37.56z"/>
  <path class="fil0" d="M1464.48 813.69c70.43,5.03 152.47,-49.59 181.38,-80.87 100.41,-108.67 102.83,-265.9 1.75,-379.69 -37.64,-42.37 -125.76,-89.2 -181.97,-82.64l-202.99 0.15 -0.05 542.37 201.88 0.68zm-87.85 -117.52c14.95,2.6 76.36,1.63 93.23,0.08 138.67,-12.68 187.65,-202.28 71.07,-281.7 -19.35,-13.19 -40.88,-23.7 -69.13,-26.84 -15.47,-1.73 -81.55,-2.8 -95.24,-0.33l0.07 308.79z"/>
  <path class="fil0" d="M3242.4 814.7l115.46 -0.05 0.12 -116.9 229.11 0.04 0.67 116.87 115.41 0.02c0.08,-64.96 0.03,-129.4 0.03,-193.83 0,-58.04 4.88,-130.7 -9.44,-183.35 -24.22,-89.11 -108.96,-168.14 -220.48,-168.58 -112.72,-0.44 -194.54,78.36 -220.66,166.18 -15.46,51.97 -10.3,126.48 -10.3,183.69 0,65.2 -0.67,130.75 0.08,195.91zm115.57 -234.56l229.69 0.1c0.56,-50.14 5.94,-98.87 -16.56,-137.29 -16.1,-27.48 -50.06,-56.24 -97.76,-56.44 -48.66,-0.2 -81.11,27.41 -98.47,55.88 -22.75,37.34 -17.61,88.75 -16.9,137.75z"/>
  <path class="fil0" d="M1921.73 814.57l115.07 0.1c0.07,-24.4 -3.09,-99.19 1.12,-116.92l228.23 0.03 0.81 116.81 115.22 0.11c-0.6,-64.77 -0.05,-129.44 -0.05,-193.85 0,-55.26 5.12,-134.43 -9.36,-183.42 -65.94,-223.11 -372.92,-224.69 -441.05,-2.23 -15.43,50.38 -10.16,127.48 -10.16,183.59 0,64.75 -1.48,131.25 0.17,195.78zm115.14 -234.44l229.98 0.12c0.48,-49.41 5.88,-99.06 -16.68,-137.4 -41.28,-70.17 -146.26,-80.27 -196.2,-0.34 -22.83,36.54 -17.85,89.51 -17.1,137.62z"/>
  <path class="fil0" d="M2584.72 482.33l-1.57 81.02c0,67.93 -3.38,194.65 0.24,249.76l112.84 0.06c2.62,-38.63 -4.08,-314.3 3.07,-323.08 0.03,-53.57 55.88,-103.38 112.37,-103.59 34.7,-0.13 60,13.99 78.42,30.75 14.38,13.09 36.37,42.91 35.95,73.12 5.28,2.97 1.11,290.52 2.77,322.72l112.96 0.08 -0.9 -329.19c2.82,-25.79 -12.71,-65.66 -22.67,-85.9 -83.62,-169.97 -323.64,-172.22 -409.64,-2.93 -10.08,19.85 -26.22,60.8 -23.84,87.18z"/>
  <path class="fil2" d="M1464.48 813.69l-201.88 -0.68 0.05 -542.37 202.99 -0.15c-3.69,-5.17 -88.38,-2.08 -100.25,-2.08 -29.53,0 -76.15,-2.78 -103.6,0.44 -2.59,8.64 -3.65,531.96 -0.18,546.06 18.69,2.41 148.95,0.55 190.13,0.65l11.32 -1.19c0.36,-0.1 0.95,-0.45 1.42,-0.68z"/>
  <path class="fil2" d="M2926.04 490.37c1.21,44.37 -2.4,308.75 1.74,324.6l115.02 0.5c3,-12.71 1.15,-218.86 1.15,-250.07 0,-14.92 4,-73.53 -3.08,-81.42l0.9 329.19 -112.96 -0.08c-1.66,-32.2 2.51,-319.75 -2.77,-322.72z"/>
  <path class="fil2" d="M2699.3 490.09c-7.15,8.78 -0.45,284.45 -3.07,323.08l-112.84 -0.06c-3.62,-55.11 -0.24,-181.83 -0.24,-249.76l1.57 -81.02c-6.42,2.79 -3.55,147.19 -3.55,165.21 0,26.24 -3.12,152.45 1.37,167.49l114.96 0.42 1.8 -325.36z"/>
 </g>
</svg>
