<?xml version="1.0" encoding="UTF-8"?>
<!DOCTYPE svg PUBLIC "-//W3C//DTD SVG 1.1//EN" "http://www.w3.org/Graphics/SVG/1.1/DTD/svg11.dtd">
<!-- Creator: CorelDRAW 2019 (64-Bit) -->
<svg xmlns="http://www.w3.org/2000/svg" xml:space="preserve" width="728px" height="240px" version="1.1" style="shape-rendering:geometricPrecision; text-rendering:geometricPrecision; image-rendering:optimizeQuality; fill-rule:evenodd; clip-rule:evenodd"
viewBox="0 0 728 239.87"
 xmlns:xlink="http://www.w3.org/1999/xlink"
 xmlns:xodm="http://www.corel.com/coreldraw/odm/2003">
 <defs>
  <style type="text/css">
   <![CDATA[
    .fil3 {fill:white}
    .fil4 {fill:black;fill-rule:nonzero}
    .fil0 {fill:#00AA11;fill-rule:nonzero}
    .fil2 {fill:#00AED6;fill-rule:nonzero}
    .fil1 {fill:black;fill-rule:nonzero}
   ]]>
  </style>
 </defs>
 <g id="Layer_x0020_1">
  <metadata id="CorelCorpID_0Corel-Layer"/>
  <path class="fil0" d="M395.58 207.41c-0.75,14.09 -7.03,23.73 -19.07,29.58 -3.5,1.69 -6.76,0.35 -8.35,-3.23 -1.23,-2.77 0.18,-5.91 3.47,-7.38 8.53,-3.8 12.27,-11.59 12.11,-18.93 -0.2,-8.93 -5.54,-15.74 -13.95,-18.67 -8.1,-2.81 -16.56,-0.08 -22.54,7.29 -4.59,5.66 -4.98,15.44 -0.95,21.99 2.23,3.64 5.18,6.38 9.06,8.21 3.66,1.72 4.95,4.9 3.47,8.05 -1.51,3.21 -5.09,4.24 -8.68,2.42 -9.64,-4.86 -15.96,-12.42 -17.89,-23.15 -3.05,-16.96 7.54,-32.17 22.8,-36.39 18.04,-4.99 35.36,6.41 39.4,22.9 0.63,2.6 0.82,5.32 1.12,7.31z"/>
  <path class="fil1" d="M441.64 190.19c0.1,-1.35 0.17,-2.42 0.26,-3.65 3.12,0 6.12,0 9.31,0 0.07,0.68 0.2,1.33 0.2,1.98 0.01,11 0.06,22.01 -0.02,33.02 -0.06,6.79 -2.68,12.38 -8.75,15.8 -7.6,4.3 -19.46,2.95 -26.25,-2.76 -0.64,-0.54 -1.25,-1.11 -2,-1.78 2.02,-1.99 4,-3.94 6.18,-6.08 3.39,2.72 7.19,4.09 11.63,3.96 6.85,-0.21 10.23,-3.96 9.34,-11.26 -5.74,4.49 -12.06,4.66 -18.49,2.51 -3.83,-1.28 -6.85,-3.84 -9,-7.42 -4.53,-7.55 -3.36,-17.13 2.91,-22.98 6.72,-6.27 16.88,-6.91 24.68,-1.34zm-0.39 14.63l0 0c0,-6.38 -3.46,-9.86 -9.76,-9.8 -5.93,0.05 -9.92,3.94 -10.14,9.34 -0.28,7.05 4.3,10.22 10.36,10.14 6.23,-0.09 9.54,-3.38 9.54,-9.68z"/>
  <path class="fil1" d="M599.58 186.43c-5.74,5.41 -10.97,10.35 -16.28,15.36 5.4,7.18 10.68,14.2 16.32,21.7 -3.86,0 -7.05,0.1 -10.23,-0.07 -0.74,-0.04 -1.62,-0.83 -2.12,-1.5 -2.94,-3.92 -5.77,-7.92 -8.65,-11.88 -0.48,-0.67 -1,-1.31 -1.86,-2.45 -2.07,2.37 -4.71,4.23 -5.61,6.73 -0.94,2.61 -0.21,5.82 -0.21,9.18 -1.72,0 -3.21,0 -4.7,0 -1.42,0 -2.85,0 -4.5,0 -0.07,-1.11 -0.16,-2 -0.16,-2.9 -0.01,-13.88 0.06,-27.77 -0.08,-41.66 -0.02,-2.67 0.8,-3.44 3.32,-3.17 1.91,0.21 3.85,0.04 6.09,0.04 0,8.44 0,16.58 0,25.41 2.91,-2.63 5.34,-4.78 7.72,-6.98 2.43,-2.23 4.79,-4.53 7.23,-6.74 0.53,-0.48 1.26,-1.01 1.92,-1.03 3.68,-0.09 7.37,-0.04 11.8,-0.04z"/>
  <path class="fil1" d="M527.72 208.11c0.58,3.92 4.33,6.92 8.65,7.26 3.65,0.29 7.07,-0.24 10.05,-2.61 0.48,-0.38 1.5,-0.68 1.91,-0.43 2,1.23 3.87,2.65 5.97,4.13 -6.47,6.45 -13.84,8.22 -22.3,6.13 -6.89,-1.7 -11.88,-5.57 -13.5,-12.63 -3.51,-15.37 8.33,-25.53 22.01,-23.21 7.94,1.34 12.88,6 14.74,13.76 0.56,2.32 0.4,4.81 0.59,7.6 -4.97,0 -9.6,0 -14.23,0 -4.56,0 -9.13,0 -13.89,0zm18.37 -7.08l0 0c-0.64,-4.61 -4.31,-6.81 -10.48,-6.52 -4.42,0.2 -7.42,2.72 -7.64,6.52 6,0 11.98,0 18.12,0z"/>
  <path class="fil1" d="M476.65 185.9c10.94,0.44 19.07,7.25 19.89,17.86 0.55,7.24 -2.63,13.05 -8.99,16.95 -7.29,4.47 -18.85,3.27 -25.02,-2.69 -9.26,-8.95 -6.43,-24.73 5.43,-29.68 2.75,-1.15 5.78,-1.64 8.69,-2.44zm9.95 19.08l0 0c-0.02,-6.02 -3.86,-10 -9.67,-9.96 -6.52,0.05 -9.93,4.25 -10.15,9.98 -0.21,5.51 4.51,9.93 10.04,9.89 5.91,-0.05 9.8,-3.99 9.78,-9.91z"/>
  <path class="fil1" d="M502.28 186.45c3.35,0 6.3,0 9.66,0 0,0.83 0,1.63 0,2.43 0,13.39 0,26.78 -0.01,40.17 0,6.75 -3.94,10.68 -10.7,10.7 -2.6,0.01 -5.21,0.01 -8.09,0.01 0,-1.59 0,-2.92 0,-4.25 0,-1.34 0,-2.69 0,-4.5 1.74,0 3.32,0.06 4.89,-0.02 3.57,-0.17 4.25,-0.9 4.25,-4.42 0,-12.37 0,-24.74 0,-37.11 0,-0.92 0,-1.83 0,-3.01z"/>
  <path class="fil0" d="M351.81 207.55c-0.73,-5.42 6.14,-11.94 11.97,-11.56 6.46,0.43 11.8,5.46 11.76,11.91 -0.04,6.42 -5.62,12.09 -12.04,11.92 -6.43,-0.17 -12.07,-5.26 -11.69,-12.27z"/>
  <path class="fil1" d="M128.38 190.94l9.97 0c5.43,0 8.64,3.06 8.64,7.97 0,4.99 -3.17,7.91 -8.64,7.91l-6.94 0 0 9.97 -3.03 0 0 -25.85zm9.79 13l0 0c3.95,0 5.76,-1.59 5.76,-5.03 0,-3.43 -1.89,-5.09 -5.76,-5.09l-6.76 0 0 10.12 6.76 0z"/>
  <path class="fil1" d="M157.7 196.66c5.54,0 9.24,4.17 9.24,10.34 0,6.17 -3.7,10.34 -9.24,10.34 -5.5,0 -9.19,-4.17 -9.19,-10.34 0,-6.17 3.69,-10.34 9.19,-10.34zm0 2.7l0 0c-3.87,0 -6.31,2.95 -6.31,7.64 0,4.69 2.44,7.64 6.31,7.64 3.88,0 6.36,-2.95 6.36,-7.64 0,-4.69 -2.48,-7.64 -6.36,-7.64z"/>
  <polygon class="fil1" points="168.79,197.21 171.63,197.21 175.17,212.43 175.25,212.43 180.49,197.21 183.11,197.21 188.36,212.43 188.43,212.43 191.98,197.21 194.82,197.21 190.13,216.79 187.4,216.79 181.86,200.8 181.78,200.8 176.21,216.79 173.47,216.79 "/>
  <path class="fil1" d="M205.75 196.66c5.25,0 8.75,3.95 8.75,9.71l0 1.48 -14.88 0c0.08,3.77 2.48,6.87 6.06,6.87 2.77,0 4.32,-1 5.98,-3.92l2.4 1.44c-1.66,3.36 -4.5,5.1 -8.31,5.1 -5.43,0 -9.05,-4.17 -9.05,-10.34 0,-6.17 3.74,-10.34 9.05,-10.34zm5.84 8.86l0 0c-0.04,-1.81 -0.63,-3.28 -1.7,-4.47 -1.07,-1.18 -2.44,-1.77 -4.14,-1.77 -3.32,0 -5.98,2.96 -6.05,6.24l11.89 0z"/>
  <path class="fil1" d="M218.61 197.21l2.73 0 0 1.63 0.07 0c0.74,-1.22 2.18,-1.96 4.06,-1.96 0.59,0 1.26,0.11 1.96,0.3l-0.63 2.99c-0.7,-0.22 -1.36,-0.33 -1.92,-0.33 -2.32,0 -3.4,1.55 -3.4,5.2l0 11.75 -2.87 0 0 -19.58z"/>
  <path class="fil1" d="M237.81 196.66c5.24,0 8.75,3.95 8.75,9.71l0 1.48 -14.88 0c0.07,3.77 2.47,6.87 6.05,6.87 2.77,0 4.33,-1 5.99,-3.92l2.4 1.44c-1.66,3.36 -4.51,5.1 -8.31,5.1 -5.43,0 -9.05,-4.17 -9.05,-10.34 0,-6.17 3.73,-10.34 9.05,-10.34zm5.83 8.86l0 0c-0.03,-1.81 -0.62,-3.28 -1.69,-4.47 -1.08,-1.18 -2.44,-1.77 -4.14,-1.77 -3.32,0 -5.98,2.96 -6.06,6.24l11.89 0z"/>
  <path class="fil1" d="M258.71 196.66c2.37,0 4.47,1 5.76,2.62l0.08 0 0 -9.45 2.88 0 0 26.96 -2.77 0 0 -1.96 -0.08 0c-1.29,1.59 -3.47,2.51 -5.87,2.51 -5.09,0 -8.79,-4.25 -8.79,-10.34 0,-6.09 3.7,-10.34 8.79,-10.34zm5.84 8.42l0 0c0,-3.18 -2.59,-5.72 -5.84,-5.72 -3.51,0 -5.91,3.02 -5.91,7.64 0,4.62 2.4,7.64 6.1,7.64 3.1,0 5.65,-2.58 5.65,-5.76l0 -3.8z"/>
  <path class="fil1" d="M285.04 214.83l0 1.96 -2.76 0 0 -26.96 2.87 0 0 9.45 0.08 0c1.29,-1.62 3.4,-2.62 5.76,-2.62 5.1,0 8.79,4.25 8.79,10.34 0,6.09 -3.69,10.34 -8.79,10.34 -2.4,0 -4.58,-0.92 -5.87,-2.51l-0.08 0zm5.95 -15.47l0 0c-3.25,0 -5.84,2.54 -5.84,5.72l0 3.8c0,3.18 2.55,5.76 5.65,5.76 3.7,0 6.1,-3.02 6.1,-7.64 0,-4.62 -2.4,-7.64 -5.91,-7.64z"/>
  <polygon class="fil1" points="308.27,215.12 300.74,197.21 303.81,197.21 309.75,211.8 309.82,211.8 315.81,197.21 318.87,197.21 307.13,225.09 304.14,225.09 "/>
  <path class="fil2" d="M79.43 0c43.86,0 79.42,34.32 79.42,76.65 0,42.33 -35.56,76.65 -79.42,76.65 -43.87,0 -79.43,-34.32 -79.43,-76.65 0,-42.33 35.56,-76.65 79.43,-76.65z"/>
  <path class="fil3" d="M125.76 74.29c-0.61,-9.76 -9.21,-17.24 -19.33,-16.8l-50.17 0c-1.83,0 -3.31,-1.43 -3.31,-3.2 0,-1.76 1.48,-3.19 3.31,-3.19l50.83 0c-0.29,-6.61 -4.97,-12.29 -11.58,-14.05 -14.82,-2.56 -29.99,-2.56 -44.81,0 -8.42,2 -14.72,8.76 -15.88,17.05 -2.32,15.04 -2.32,30.32 0,45.35 1.77,8.78 8.99,15.57 18.13,17.06 18.37,2.23 36.96,2.23 55.33,0 8.19,-1.6 14.38,-8.09 15.36,-16.1 1.68,-8.61 2.39,-17.37 2.12,-26.12zm-16.55 10.73l0 0 0 2.81c0,1.76 -1.48,3.19 -3.31,3.19 -1.83,0 -3.31,-1.43 -3.31,-3.19l0 -2.81c-1.07,-0.9 -1.67,-2.21 -1.65,-3.58 0,-2.65 2.22,-4.79 4.96,-4.79 2.74,0 4.96,2.14 4.96,4.79 -0.01,1.36 -0.61,2.66 -1.65,3.58z"/>
  <path class="fil4" d="M385.08 68.03c0.11,-13.44 -11.09,-24.42 -25.02,-24.53 -13.93,-0.1 -25.3,10.7 -25.41,24.14 -0.11,13.44 11.09,24.43 25.02,24.53 0.13,0 0.26,0 0.39,0 13.21,0.69 24.5,-9.1 25.21,-21.85 0.04,-0.76 0.04,-1.53 0.01,-2.29l-0.2 0zm-74.92 0l0 0c0,-25.55 20.91,-45.03 49.9,-45.03 28.99,0 49.91,19.6 49.91,45.03 0,25.42 -20.72,45.09 -49.91,45.09 -29.19,0 -49.9,-19.61 -49.9,-45.09z"/>
  <path class="fil4" d="M270.44 72.69c0,10.54 -11.12,19.16 -25.21,19.16 -12.95,1.27 -24.51,-7.84 -25.82,-20.34 -0.13,-1.26 -0.15,-2.53 -0.06,-3.8 0,-13.93 10.59,-23.51 26.87,-23.51 13.24,0 24.22,8.75 24.22,18.65l0 9.84zm0.99 -49.76l0 0 0 10.09c-8.05,-7.06 -18.72,-10.67 -29.58,-10.02 -25.68,0.22 -46.3,20.5 -46.07,45.28 0.24,24.78 21.25,44.69 46.93,44.46 10.57,0.46 20.86,-3.36 28.39,-10.54l0 8.62c0,11.69 -10.45,20.25 -24.22,20.25 -10.51,0.73 -20.87,-2.78 -28.59,-9.71l-16.09 14.95c12.06,11.42 28.45,17.56 45.34,16.99 28.2,0 47.52,-18.27 47.52,-42.6l0 -87.77 -23.63 0z"/>
  <path class="fil4" d="M424.53 25.55l23.69 0 0 7.54 0.33 0c7.77,-6.84 18.03,-10.42 28.53,-9.97 25.79,0.94 45.91,21.88 44.94,46.76 -0.92,23.58 -20.51,42.48 -44.94,43.37 -10.03,0.22 -19.82,-2.96 -27.67,-9.01l0 42.67 -24.68 0 -0.2 -121.36zm48.71 18.65l0 0c-13.24,0 -24.02,8.88 -24.02,18.53l0 10.79c0,10.28 10.65,18.78 24.15,18.78 13.77,0.68 25.5,-9.53 26.21,-22.81 0.71,-13.28 -9.87,-24.6 -23.64,-25.29 -0.85,-0.04 -1.71,-0.04 -2.57,0l-0.13 0z"/>
  <path class="fil4" d="M569.41 59.79c16.22,-2.11 21.05,-4.35 21.05,-8.69 0,-5.62 -6.15,-9.01 -15.69,-9.01 -10.27,-0.81 -19.62,5.73 -22.04,15.4l-23.29 -4.67c3.31,-17.37 21.84,-29.76 44.67,-29.76 25.82,0 41.83,12.77 41.83,33.47l0 54.23 -22.17 0 0 -9.45 -0.33 0c-7.52,8.17 -18.55,12.51 -29.85,11.75 -19.53,0 -33.1,-10.29 -33.1,-25.55 0,-15.27 11.12,-24.02 38.92,-27.72zm23.04 9l0 0 -0.33 0c-2.19,3.07 -6.62,4.86 -18.87,6.9 -14.49,2.62 -19.85,5.37 -19.85,10.35 0,4.98 4.3,7.41 13.63,7.41 14.23,0 25.22,-6.39 25.22,-14.5l0.2 -10.16z"/>
  <polygon class="fil4" points="660.62,105.97 619.78,25.55 646.99,25.55 673.79,81.25 674.19,81.25 700.66,25.55 728,25.55 666.84,146.91 639.64,146.91 "/>
 </g>
</svg>
