<?xml version="1.0" encoding="UTF-8"?>
<!DOCTYPE svg PUBLIC "-//W3C//DTD SVG 1.1//EN" "http://www.w3.org/Graphics/SVG/1.1/DTD/svg11.dtd">
<!-- Creator: CorelDRAW 2019 (64-Bit) -->
<svg xmlns="http://www.w3.org/2000/svg" xml:space="preserve" width="675px" height="240px" version="1.1" style="shape-rendering:geometricPrecision; text-rendering:geometricPrecision; image-rendering:optimizeQuality; fill-rule:evenodd; clip-rule:evenodd"
viewBox="0 0 675 240.16"
 xmlns:xlink="http://www.w3.org/1999/xlink"
 xmlns:xodm="http://www.corel.com/coreldraw/odm/2003">
 <defs>
  <style type="text/css">
   <![CDATA[
    .fil2 {fill:blue}
    .fil4 {fill:#E6252D}
    .fil3 {fill:#F9CD09}
    .fil1 {fill:red}
    .fil0 {fill:white}
    .fil5 {fill:red;fill-rule:nonzero}
   ]]>
  </style>
 </defs>
 <g id="Layer_x0020_1">
  <metadata id="CorelCorpID_0Corel-Layer"/>
  <polygon class="fil0" points="0,0 675,0 675,240.16 0,240.16 "/>
  <path class="fil1" d="M29.98 15.03l615.04 0c8.65,0 15.72,7.19 15.72,15.98l0 49.31 -76.97 0c-4.05,-44.65 -206.74,-54.17 -241.77,-54.44 -56.47,-0.43 -250.95,12.86 -250.95,53.58l0 0.86 -76.79 0 0 -49.31c0,-8.79 7.07,-15.98 15.72,-15.98z"/>
  <path class="fil2" d="M90.99 153.33l-76.73 0 0 -66.3 76.77 0c-0.06,20.77 -0.34,46.24 -0.04,66.3zm569.75 -66.3l0 66.3 -76.8 0c0.61,-20.73 -0.75,-45.39 -0.26,-66.3l77.06 0z"/>
  <path class="fil3" d="M660.74 160.03l0 49.13c0,8.78 -7.07,15.97 -15.72,15.97l-615.04 0c-8.65,0 -15.72,-7.19 -15.72,-15.97l0 -49.13 77.25 0c9.48,40.13 168.79,55.9 248.49,56.34 44.9,0.25 231.79,-14.03 243.26,-56.34l77.48 0z"/>
  <path class="fil4" d="M341.05 37.6c43.78,0.4 231.28,19.46 229.56,43.11 -1.45,19.86 1.49,58.37 0,78.23 -1.74,23.01 -187.11,43.14 -230.75,42.77 -47.03,-0.4 -234.82,-15.96 -235.59,-44.9 -0.53,-19.9 0,-54 0,-73.91 0,-29.54 189.02,-45.74 236.78,-45.3zm-0.2 18.12l0 0c-45.09,-0.34 -223.57,10.54 -223.57,33.55 0,15.52 -0.48,46.15 0,61.65 0.72,23.14 178.04,32.36 222.45,32.67 41.2,0.28 216.24,-13.08 217.88,-31.01 1.41,-15.47 -1.37,-48.95 0,-64.43 1.63,-18.43 -175.42,-32.11 -216.76,-32.43z"/>
  <path class="fil2" d="M266.32 122.22c2.3,1.04 1.86,6.61 -0.98,12.42 -2.84,5.8 -7.03,9.68 -9.34,8.64 -2.3,-1.03 -1.86,-6.61 0.98,-12.42 2.84,-5.8 7.04,-9.68 9.34,-8.64zm156.02 0.5l0 0c2.3,1.04 1.87,6.62 -0.98,12.42 -2.84,5.8 -7.04,9.68 -9.34,8.65 -2.31,-1.04 -1.87,-6.62 0.98,-12.42 2.84,-5.8 7.03,-9.69 9.34,-8.65zm76.59 -1.63l0 0c1.25,0.95 0.12,4.6 -2.54,8.11 -2.65,3.51 -5.85,5.6 -7.1,4.65 -1.26,-0.95 -0.13,-4.6 2.53,-8.11 2.65,-3.51 5.84,-5.6 7.11,-4.65zm1.61 -7.52l0 0c-8.76,-0.66 -14.62,5.41 -17.69,11.41 -2.44,4.76 -3.16,11.6 -1.42,17.31 -2.53,2.04 -5.68,3.81 -10.69,4.8 -2.48,0.5 -3.85,-1.38 -3.83,-3.11 0.06,-4.97 0.6,-9.14 2.03,-13.8 0.58,-1.93 2.57,-1.27 3.25,-2.9 1.39,-3.38 1.56,-6.65 -2.9,-6.12 -2.87,0.35 -5.97,0.78 -6.08,-3.1 -0.11,-3.78 4.51,-5.8 3.83,-6.13 -2.56,-1.23 -4.71,-0.01 -7.38,-0.96 -0.75,-0.27 -0.13,-1.97 -0.89,-2.22 -1.02,-0.34 -2.81,0.74 -3.4,1.64 -1.29,1.98 -1.18,3.79 -2.14,6.12 -0.8,1.96 -0.88,4.14 -1.33,6.21 -1.39,4.07 -10.21,16.69 -16.69,19.98 -3.64,1.85 -5.93,0.22 -4.8,-3.58 1.5,-5.08 6.5,-17.44 9.75,-26.16 -3.18,0.08 -6,0.33 -9.18,0.4 -0.37,1.11 -0.92,1.86 -1.28,2.97 -7.12,-4.56 -11.45,-2.81 -17.92,1.84 -4.81,3.46 -9.03,8.69 -11.3,14.96 -0.9,2.49 -1.39,5.01 -1.46,7.37 -3.93,1.43 -7.84,3.53 -11.35,3.01 -0.85,-0.13 -1.44,-1.44 -1.24,-2.28 1.17,-5.07 3.65,-9.75 5.19,-14.73 0.96,-3.13 2.87,-6.33 2.28,-9.54 -0.8,-4.33 -6.33,-4.46 -9.34,-2.91 -2.55,1.33 -4.5,3.65 -7.05,4.98 -0.51,0.27 -1.24,-0.03 -1.66,-0.41 -1.1,-0.99 -1.62,-2.52 -2.7,-3.53 -0.95,-0.89 -2.04,-1.81 -3.32,-2.07 -1.56,-0.32 -3.3,-0.2 -4.77,0.41 -3.12,1.3 -5.35,4.85 -8.71,5.19 -1.46,0.15 -0.52,-3.02 -1.45,-4.15 -2.25,-2.72 -4.41,-1.77 -7.06,-0.63 -5.44,2.37 -10.81,4.88 -16.22,7.32 0.54,1.1 0.99,2.23 1.36,3.41 2.15,-0.74 4.38,-1.69 6.56,-2.22 1.01,-0.25 2.24,-0.76 3.12,-0.21 0.79,0.5 1.11,1.8 0.82,2.7 -2.95,9.51 -6.91,18.67 -10.37,28.01 3.6,-0.07 7.19,-0.14 10.79,-0.21 3.25,-8.37 5.52,-17.19 9.75,-25.1 0.76,-1.43 2.98,-1.98 4.56,-1.66 1.09,0.22 1.47,1.81 1.66,2.9 0.25,1.37 0.04,2.83 -0.41,4.15 -2.26,6.68 -5.12,13.14 -7.68,19.71 3.95,-0.07 8.09,0.28 12.03,0.21 3.81,-8.72 5.3,-17.65 9.96,-25.93 0.58,-1.04 3.64,-1.37 4.77,-1.04 0.76,0.22 1.62,1.09 1.46,1.87 -1.01,4.66 -3.59,8.86 -4.77,13.48 -0.56,2.15 -1.02,4.51 -0.42,6.64 0.51,1.8 1.86,3.52 3.53,4.35 1.42,0.72 3.3,0.41 4.77,-0.2 5.58,-2.32 10.76,-5.5 16.1,-8.34 0.94,6 5.25,10.12 13.46,8.29 2.87,-0.64 4.44,-2.51 7.09,-3.77 1.35,4.3 4.32,6.06 9.09,4.1 11.78,-4.84 18.69,-13.25 27.4,-25.86 1.41,0.31 4.18,-0.48 5.58,-0.46 -1.5,4.54 -10.79,20.74 -1.08,25.62 2.71,1.36 4.79,0.91 7.78,0.37 6.71,-1.22 10.85,-4.07 14.07,-6.74 1.64,3.22 4.26,5.78 8.06,6.94 7.73,2.37 16.56,-1.72 22.08,-4.15 2.94,5.07 10.53,6.01 14.96,4.4 4.68,-1.71 8.9,-4.69 12.64,-7.98 0.77,-0.69 0.69,-2.43 -0.09,-3.11 -0.72,-0.64 -1.94,0.5 -2.72,1.08 -3.23,2.41 -9.7,8.49 -13.34,3.38 -1.63,-2.29 -0.54,-6.15 1.07,-10.53 1.58,-4.27 3.09,-9.8 4.64,-14.08 2.2,-0.18 4.68,0.05 6.88,-0.13 0.95,-2.67 1.36,-4.81 2.31,-7.48 -1.49,-0.12 -3.52,0.03 -5.01,-0.09 1.37,-7.16 4.33,-14.47 6.84,-21.64 -3.38,0.07 -6.21,0.27 -9.6,0.33 -2.37,6.97 -4.23,13.81 -7.47,20.78 -2.21,0.07 -4.56,0.27 -6.77,0.33 -0.58,2.61 -1.17,5.22 -1.76,7.82 1.7,-0.06 4.07,-0.13 5.76,-0.19 -2.15,8.18 -4.48,15.55 -9.27,21.89 -1.7,2.25 -4.65,3.54 -7.41,4.11 -8.47,1.73 -11.73,-1.01 -13.07,-4.85 3.57,-3 7.12,-4.41 10.34,-7.79 5.19,-5.42 11.56,-19.73 -1.13,-20.7zm-294.26 -31.84l0 0c-13.44,1.55 -33.35,3.02 -44.73,10.51 -6.69,4.41 -12.69,12.87 -6.69,21.48 5.88,8.41 16.36,4.85 20.61,-0.74 -4.86,-0.64 -8.73,-1.55 -9.04,-5.03 -1.38,-15.81 13.07,-12.54 26.93,-17.06 -7.2,17.03 -13.68,47.38 -32.01,51.13 -13.34,2.72 -19.46,-3.17 -22.57,-11.47 -7.39,14.22 3.18,20.71 12.66,22.17 8.77,1.36 20,-4.11 26.2,-10.6 4.38,-2.86 8.76,-6.11 12.75,-9.81 1.04,-0.97 15.66,-12.16 14.31,-2.9 -1.19,8.15 -4.43,14.1 -6.85,21.99 3.6,0.06 7.19,0.13 10.79,0.2 2.63,-7.81 4.56,-15.89 7.88,-23.44 0.58,-1.32 2.11,-2.29 3.53,-2.49 1.32,-0.19 3.25,0.21 3.74,1.45 0.85,2.2 -0.37,4.98 -0.99,7.24 -1.01,3.71 -6.6,15.79 0.67,16.71 7.14,0.91 15.16,-4.2 19.39,-7.64 0.59,3.59 2.49,6.72 6.27,8.52 2.6,1.24 5.84,0.44 8.64,-0.2 2.28,-0.52 4.16,-2.14 6.23,-3.22 -0.37,5.21 4.6,4.6 7.93,3.02 7.53,-3.58 11.73,-6.09 16.87,-7.8 -0.53,-0.92 -1,-1.89 -1.41,-2.88 -3.7,0.94 -7.34,2.73 -11.13,2.44 -1.27,-0.1 -1.61,-2.41 -1.21,-3.62 5.31,-15.93 12.06,-31.35 18.09,-47.02 -3.15,0.2 -5.56,0.2 -8.71,0.4 -2.48,6.7 -5.69,13.6 -8.17,20.3 -11.83,-2.17 -22.84,1.14 -30.54,15.87 -1.65,3.15 -2.81,6.83 -3.03,10.37 -2.68,1.76 -5.17,3.56 -8.33,4.35 -1.17,0.3 -2.07,-1.54 -1.86,-2.73 0.68,-3.96 2.06,-7.75 3.39,-11.56 0.91,-2.6 4.29,-10.15 3.04,-12.71 -2.16,-4.44 -5.32,-4.41 -8.53,-3.09 -4.12,1.69 -8.32,5.52 -10.56,4.75 -3.29,-1.14 -2.35,-6.22 -7.3,-5.64 -1.56,0.18 -3.15,0.81 -4.52,1.49 -7.05,3.47 -13.75,8.46 -20.49,12.74 6.47,-12.44 12.61,-29.02 18.75,-45.48z"/>
  <path class="fil5" d="M309.83 107.51l0.01 0c6.67,0 12.73,2.72 17.12,7.11l0 0.01c4.38,4.38 7.1,10.43 7.1,17.1l0 0.01c0,6.68 -2.72,12.74 -7.11,17.12l0 0c-4.39,4.39 -10.44,7.11 -17.11,7.11l-0.01 0c-6.67,0 -12.73,-2.72 -17.12,-7.11 -4.39,-4.39 -7.11,-10.44 -7.11,-17.11l0 -0.02c0,-6.67 2.72,-12.73 7.11,-17.11 4.39,-4.39 10.44,-7.11 17.11,-7.11l0.01 0zm0.01 2.95l-0.02 0c-5.85,0 -11.17,2.39 -15.02,6.25 -3.85,3.85 -6.25,9.17 -6.25,15.02l0 0.02c0.01,5.85 2.4,11.17 6.25,15.02 3.85,3.85 9.17,6.25 15.03,6.25l0.01 0c5.86,-0.01 11.17,-2.39 15.02,-6.25l0 0c3.86,-3.85 6.25,-9.17 6.25,-15.03l0 -0.01c0,-5.85 -2.39,-11.17 -6.24,-15.02l-0.01 0c-3.85,-3.86 -9.17,-6.25 -15.02,-6.25z"/>
  <path class="fil1" d="M309.83 113.41c10.12,0 18.33,8.21 18.33,18.33 0,10.12 -8.21,18.33 -18.33,18.33 -10.12,0 -18.33,-8.21 -18.33,-18.33 0,-10.12 8.21,-18.33 18.33,-18.33zm0 3.77c8.04,0 14.56,6.52 14.56,14.56 0,8.04 -6.52,14.56 -14.56,14.56 -8.04,0 -14.55,-6.52 -14.55,-14.56 0,-8.04 6.51,-14.56 14.55,-14.56z"/>
  <path class="fil1" d="M309.83 120.75c6.07,0 10.99,4.92 10.99,10.99 0,6.07 -4.92,10.99 -10.99,10.99 -6.07,0 -10.99,-4.92 -10.99,-10.99 0,-6.07 4.92,-10.99 10.99,-10.99z"/>
 </g>
</svg>
