<?xml version="1.0" encoding="UTF-8"?>
<!DOCTYPE svg PUBLIC "-//W3C//DTD SVG 1.1//EN" "http://www.w3.org/Graphics/SVG/1.1/DTD/svg11.dtd">
<!-- Creator: CorelDRAW X5 -->
<svg xmlns="http://www.w3.org/2000/svg" xml:space="preserve" width="93.3075mm" height="20.32mm" style="shape-rendering:geometricPrecision; text-rendering:geometricPrecision; image-rendering:optimizeQuality; fill-rule:evenodd; clip-rule:evenodd"
viewBox="0 0 9331 2032"
 xmlns:xlink="http://www.w3.org/1999/xlink">
 <defs>
  <style type="text/css">
   <![CDATA[
    .fil0 {fill:#ED3237}
   ]]>
  </style>
 </defs>
 <g id="Layer_x0020_1">
  <metadata id="CorelCorpID_0Corel-Layer"/>
  <polygon class="fil0" points="3574,537 4372,537 3979,1945 4532,1945 4925,537 5570,537 5718,369 5196,369 5265,291 5788,291 5862,207 5326,207 5395,97 5961,97 6047,0 3820,0 "/>
  <polygon class="fil0" points="1512,1964 0,1964 232,1589 1101,1594 1497,15 2001,15 1598,1594 "/>
  <path class="fil0" d="M3861 1944l-490 0 -84 -93c-234,140 -514,211 -792,170 -343,-68 -549,-276 -520,-616 46,-237 150,-435 303,-600 -172,-344 -109,-580 1,-794l1185 0 -198 452c-154,-310 -640,-232 -621,183l580 642c50,-61 100,-200 150,-358l364 182c-55,167 -118,333 -204,472l1 1 323 358 0 0zm-864 -416l-449 -467c-467,338 7,889 449,467z"/>
  <path class="fil0" d="M5775 1208c0,3 0,7 -1,13 -1,5 -1,12 -3,19 -1,7 -3,14 -5,22 -2,8 -4,15 -7,21 -3,6 -6,11 -10,16 -4,4 -9,6 -13,6l-264 0 -36 181 225 0c5,0 9,2 11,5 3,4 4,9 4,16 0,3 -1,7 -1,13 -1,5 -2,12 -3,19 -1,7 -2,14 -4,21 -2,7 -5,14 -7,20 -3,6 -7,11 -10,15 -4,3 -8,5 -13,5l-225 0 -42 209 268 0c5,0 9,2 11,7 2,3 3,9 3,17 0,3 0,7 -1,13 0,6 -1,13 -3,19 -1,7 -3,15 -5,22 -2,7 -4,14 -7,21 -3,6 -6,11 -10,15 -4,3 -8,5 -13,5l-373 0c-6,0 -11,-1 -17,-3 -5,-1 -9,-5 -12,-9 -3,-4 -6,-9 -7,-15 -1,-6 -1,-13 0,-22l129 -646c3,-17 11,-29 21,-36 10,-7 22,-11 34,-11l368 0c10,0 15,7 15,22l0 0zm423 337l114 324c4,14 7,25 7,33 1,8 -2,15 -7,19 -5,5 -14,7 -26,9 -13,1 -29,1 -51,1 -16,0 -28,0 -37,-1 -9,-1 -16,-2 -21,-4 -5,-2 -9,-4 -11,-7 -3,-3 -4,-7 -6,-11l-90 -270 -190 270c-3,5 -7,9 -11,11 -3,3 -9,5 -15,7 -7,2 -16,3 -27,4 -11,1 -25,1 -42,1 -20,0 -36,0 -47,-1 -11,-1 -19,-4 -23,-8 -3,-4 -3,-11 1,-19 3,-8 10,-19 20,-32l244 -327 -103 -302c-4,-13 -7,-24 -7,-32 -1,-8 2,-14 7,-18 5,-5 13,-7 26,-8 12,-1 29,-2 50,-2 16,0 29,1 38,1 9,1 17,2 22,4 5,2 9,5 11,8 3,3 5,8 6,13l79 242 174 -245c3,-4 6,-8 10,-11 3,-3 8,-5 14,-7 7,-1 15,-3 25,-3 10,-1 23,-1 40,-1 21,0 38,1 50,2 12,1 19,3 23,8 3,4 3,10 0,18 -3,9 -10,19 -19,32l-227 302 0 0zm833 -177c0,21 -3,44 -7,67 -5,23 -13,46 -23,68 -11,23 -25,44 -42,64 -17,20 -38,38 -62,54 -25,15 -54,28 -86,36 -32,9 -70,13 -114,13l-78 0 -48 237c-1,4 -3,7 -5,11 -3,3 -8,5 -15,7 -7,2 -15,3 -25,4 -10,1 -23,1 -36,1 -15,0 -26,0 -36,-1 -9,-1 -17,-2 -22,-4 -5,-2 -9,-5 -11,-7 -2,-3 -3,-7 -1,-11l134 -667c3,-18 11,-32 23,-40 11,-9 25,-14 42,-14l162 0c20,0 38,1 53,2 16,1 31,4 46,7 23,5 44,12 63,21 19,10 34,22 47,36 13,15 23,31 30,51 7,19 11,41 11,66l0 0zm-158 17c0,-18 -5,-34 -13,-48 -9,-13 -23,-23 -40,-28 -9,-3 -17,-5 -27,-5 -10,-1 -21,-1 -33,-1l-66 0 -50 252 69 0c22,0 40,-3 56,-8 16,-5 29,-12 41,-20 12,-9 22,-19 30,-30 9,-12 15,-24 21,-36 5,-13 9,-25 11,-38 3,-13 4,-25 4,-37l0 0zm792 -37c0,25 -3,49 -10,73 -7,25 -17,47 -32,68 -15,22 -34,41 -56,58 -23,17 -52,31 -85,41 19,7 34,22 46,43 13,22 23,51 31,89l28 150c2,9 3,16 5,23 1,7 2,13 2,17 0,3 -1,7 -4,9 -3,3 -7,5 -14,7 -7,2 -15,3 -27,4 -11,1 -26,1 -43,1 -16,0 -29,0 -38,-1 -9,-1 -17,-2 -23,-5 -5,-2 -9,-5 -10,-8 -2,-3 -3,-7 -4,-12l-29 -164c-3,-19 -7,-36 -13,-50 -5,-15 -12,-27 -20,-36 -8,-10 -18,-17 -29,-22 -12,-5 -26,-7 -42,-7l-48 0 -56 283c0,4 -2,7 -5,11 -3,3 -8,5 -14,7 -7,2 -15,3 -25,4 -10,1 -23,1 -37,1 -15,0 -26,0 -35,-1 -10,-1 -17,-2 -23,-4 -5,-2 -9,-5 -11,-7 -2,-3 -3,-7 -1,-11l135 -674c3,-17 10,-29 20,-36 11,-7 23,-11 37,-11l199 0c35,0 66,3 95,10 28,7 52,17 72,30 21,13 36,30 46,50 11,21 16,44 16,72zm-162 29c0,-11 -2,-21 -6,-30 -3,-9 -9,-17 -17,-25 -8,-7 -19,-11 -31,-15 -13,-4 -28,-5 -46,-5l-85 0 -42 211 72 0c29,0 53,-4 73,-12 20,-9 36,-19 48,-32 12,-13 21,-27 27,-43 6,-16 9,-32 9,-48zm775 -168c0,3 0,7 -1,13 -1,5 -2,12 -3,19 -1,7 -3,14 -5,22 -2,8 -5,15 -7,21 -3,6 -7,11 -11,16 -4,4 -8,6 -13,6l-264 0 -36 181 225 0c5,0 9,2 11,5 3,4 3,9 3,16 0,3 0,7 -1,13 -1,5 -1,12 -3,19 -1,7 -3,14 -5,21 -2,7 -4,14 -7,20 -3,6 -6,11 -10,15 -4,3 -8,5 -13,5l-225 0 -42 209 268 0c5,0 8,2 10,7 3,3 4,9 4,17 0,3 -1,7 -1,13 -1,6 -1,13 -3,19 -1,7 -3,15 -5,22 -2,7 -5,14 -7,21 -3,6 -6,11 -10,15 -4,3 -8,5 -13,5l-372 0c-6,0 -12,-1 -17,-3 -5,-1 -9,-5 -13,-9 -3,-4 -5,-9 -7,-15 -1,-6 -1,-13 1,-22l129 -646c3,-17 10,-29 21,-36 11,-7 23,-11 35,-11l368 0c10,0 15,7 15,22l0 0zm507 35c0,3 -1,8 -1,14 -1,5 -1,12 -3,19 -1,7 -3,14 -4,21 -2,7 -4,13 -7,19 -3,6 -5,11 -9,15 -3,4 -7,6 -10,6 -5,0 -12,-3 -20,-7 -8,-5 -18,-10 -30,-16 -12,-5 -25,-11 -41,-15 -15,-5 -33,-7 -53,-7 -21,0 -38,3 -52,9 -14,5 -26,13 -35,23 -9,9 -16,20 -20,32 -5,11 -7,23 -7,35 0,13 3,26 10,36 7,11 16,20 28,29 11,9 25,17 39,26 15,9 30,17 45,27 15,9 30,19 44,30 15,11 28,23 40,38 11,15 21,30 27,49 7,19 11,40 11,64 0,36 -7,69 -22,100 -15,30 -35,57 -62,80 -27,23 -59,40 -97,53 -38,13 -80,20 -125,20 -25,0 -48,-2 -69,-7 -21,-3 -40,-9 -56,-15 -16,-5 -30,-11 -40,-18 -11,-7 -20,-13 -25,-18 -5,-6 -8,-15 -8,-26 0,-3 1,-8 1,-14 1,-7 2,-13 3,-20 1,-7 3,-15 5,-22 2,-7 4,-15 7,-21 3,-6 6,-11 9,-15 3,-3 7,-5 10,-5 7,0 15,3 23,9 9,6 21,13 34,20 13,7 29,14 48,20 18,6 40,9 66,9 23,0 42,-3 60,-9 17,-6 31,-14 42,-24 12,-10 21,-21 27,-34 6,-13 9,-27 9,-42 0,-15 -3,-27 -10,-37 -7,-11 -16,-21 -27,-30 -11,-9 -25,-18 -38,-26 -15,-8 -29,-16 -44,-25 -15,-9 -30,-19 -44,-30 -15,-11 -27,-23 -38,-38 -11,-15 -21,-30 -27,-50 -7,-19 -11,-40 -11,-65 0,-34 7,-66 21,-95 14,-28 33,-54 57,-74 25,-21 54,-37 87,-49 34,-11 72,-17 112,-17 19,0 38,1 55,4 17,3 33,7 47,11 14,4 27,9 36,15 10,5 17,10 21,13 4,4 7,8 9,11 1,5 3,9 3,15l0 0zm545 0c0,3 0,8 -1,14 -1,5 -1,12 -3,19 -1,7 -3,14 -5,21 -1,7 -4,13 -6,19 -3,6 -6,11 -9,15 -3,4 -7,6 -10,6 -5,0 -12,-3 -21,-7 -8,-5 -18,-10 -29,-16 -12,-5 -25,-11 -41,-15 -16,-5 -33,-7 -53,-7 -21,0 -38,3 -52,9 -15,5 -26,13 -35,23 -9,9 -16,20 -21,32 -4,11 -7,23 -7,35 0,13 4,26 11,36 7,11 16,20 28,29 11,9 25,17 39,26 15,9 30,17 44,27 15,9 30,19 45,30 15,11 28,23 39,38 12,15 21,30 28,49 7,19 11,40 11,64 0,36 -7,69 -22,100 -15,30 -35,57 -62,80 -27,23 -59,40 -97,53 -38,13 -80,20 -126,20 -25,0 -47,-2 -68,-7 -21,-3 -40,-9 -56,-15 -16,-5 -30,-11 -41,-18 -11,-7 -19,-13 -25,-18 -5,-6 -8,-15 -8,-26 0,-3 1,-8 1,-14 1,-7 2,-13 3,-20 1,-7 3,-15 5,-22 2,-7 4,-15 7,-21 3,-6 6,-11 9,-15 3,-3 7,-5 11,-5 7,0 14,3 23,9 9,6 20,13 34,20 13,7 29,14 48,20 18,6 40,9 66,9 23,0 42,-3 60,-9 17,-6 31,-14 42,-24 12,-10 21,-21 26,-34 7,-13 9,-27 9,-42 0,-15 -3,-27 -11,-37 -7,-11 -15,-21 -27,-30 -11,-9 -24,-18 -38,-26 -15,-8 -29,-16 -44,-25 -15,-9 -29,-19 -44,-30 -14,-11 -27,-23 -38,-38 -12,-15 -21,-30 -27,-50 -7,-19 -11,-40 -11,-65 0,-34 7,-66 21,-95 14,-28 32,-54 57,-74 25,-21 54,-37 87,-49 34,-11 72,-17 112,-17 19,0 38,1 55,4 17,3 32,7 47,11 14,4 27,9 36,15 10,5 17,10 21,13 4,4 7,8 9,11 1,5 2,9 2,15l0 0z"/>
 </g>
</svg>
