<?xml version="1.0" encoding="UTF-8"?>
<!DOCTYPE svg PUBLIC "-//W3C//DTD SVG 1.1//EN" "http://www.w3.org/Graphics/SVG/1.1/DTD/svg11.dtd">
<!-- Creator: CorelDRAW 2019 (64-Bit) -->
<svg xmlns="http://www.w3.org/2000/svg" xml:space="preserve" width="695px" height="240px" version="1.1" style="shape-rendering:geometricPrecision; text-rendering:geometricPrecision; image-rendering:optimizeQuality; fill-rule:evenodd; clip-rule:evenodd"
viewBox="0 0 695 240.01"
 xmlns:xlink="http://www.w3.org/1999/xlink"
 xmlns:xodm="http://www.corel.com/coreldraw/odm/2003">
 <defs>
  <style type="text/css">
   <![CDATA[
    .fil5 {fill:none}
    .fil7 {fill:#F0B405}
    .fil8 {fill:#00ACE6}
    .fil9 {fill:#007EC0}
    .fil6 {fill:#FEFEFE;fill-rule:nonzero}
    .fil3 {fill:#1F3E2D;fill-opacity:0.768627}
    .fil0 {fill:url(#id7)}
    .fil2 {fill:url(#id8)}
    .fil4 {fill:url(#id9)}
    .fil1 {fill:url(#id10)}
   ]]>
  </style>
   <clipPath id="id0">
    <path d="M32.34 2.94l630.32 0c16.17,0 29.4,13.23 29.4,29.4l0 175.33c0,16.17 -13.23,29.4 -29.4,29.4l-630.32 0c-16.17,0 -29.4,-13.23 -29.4,-29.4l0 -175.33c0,-16.17 13.23,-29.4 29.4,-29.4z"/>
   </clipPath>
     <mask id="id1">
  <linearGradient id="id2" gradientUnits="userSpaceOnUse" x1="-99.92" y1="90.27" x2="129.27" y2="91.77">
   <stop offset="0" style="stop-opacity:1; stop-color:white"/>
   <stop offset="1" style="stop-opacity:0; stop-color:white"/>
  </linearGradient>
      <rect style="fill:url(#id2)" x="1.9" y="1.9" width="224.8" height="236.21"/>
     </mask>
     <mask id="id3">
  <linearGradient id="id4" gradientUnits="userSpaceOnUse" x1="-20.01" y1="147.57" x2="343.38" y2="152.09">
   <stop offset="0" style="stop-opacity:1; stop-color:white"/>
   <stop offset="1" style="stop-opacity:0; stop-color:white"/>
  </linearGradient>
      <rect style="fill:url(#id4)" x="186.64" y="1.9" width="277.33" height="236.21"/>
     </mask>
     <mask id="id5">
  <linearGradient id="id6" gradientUnits="userSpaceOnUse" x1="206.17" y1="124.95" x2="575.59" y2="121.93">
   <stop offset="0" style="stop-opacity:1; stop-color:white"/>
   <stop offset="1" style="stop-opacity:0; stop-color:white"/>
  </linearGradient>
      <rect style="fill:url(#id6)" x="423.91" y="1.9" width="269.19" height="236.21"/>
     </mask>
  <linearGradient id="id7" gradientUnits="objectBoundingBox" x1="100%" y1="50.0002%" x2="4.53534e-05%" y2="50.0002%">
   <stop offset="0" style="stop-opacity:1; stop-color:#006E48"/>
   <stop offset="1" style="stop-opacity:1; stop-color:#008D4D"/>
  </linearGradient>
  <linearGradient id="id8" gradientUnits="userSpaceOnUse" xlink:href="#id7" x1="692.06" y1="120" x2="424.95" y2="120">
  </linearGradient>
  <linearGradient id="id9" gradientUnits="userSpaceOnUse" xlink:href="#id7" x1="692.06" y1="120" x2="424.95" y2="120">
  </linearGradient>
  <linearGradient id="id10" gradientUnits="objectBoundingBox" xlink:href="#id7" x1="99.9999%" y1="50.0002%" x2="0.000447925%" y2="50.0002%">
  </linearGradient>
 </defs>
 <g id="Layer_x0020_1">
  <metadata id="CorelCorpID_0Corel-Layer"/>
  <g>
  </g>
  <g style="clip-path:url(#id0)">
   <g>
    <polygon class="fil0" points="187.68,237.07 225.66,2.94 2.94,2.94 2.94,237.07 "/>
    <polygon class="fil1" points="225.66,2.94 187.68,237.07 462.93,237.07 424.95,2.94 "/>
    <polygon class="fil2" points="424.95,2.94 462.93,237.07 692.06,237.07 692.06,2.94 "/>
    <polygon class="fil3" points="-18.84,-20.6 726.04,-20.6 726.04,255.33 -18.84,255.33 "/>
    <polygon class="fil0" style="mask:url(#id1)" points="187.68,237.07 225.66,2.94 2.94,2.94 2.94,237.07 "/>
    <polygon class="fil1" style="mask:url(#id3)" points="225.66,2.94 187.68,237.07 462.93,237.07 424.95,2.94 "/>
    <polygon class="fil4" style="mask:url(#id5)" points="424.95,2.94 462.93,237.07 692.06,237.07 692.06,2.94 "/>
   </g>
  </g>
  <path class="fil5" d="M32.34 2.94l630.32 0c16.17,0 29.4,13.23 29.4,29.4l0 175.33c0,16.17 -13.23,29.4 -29.4,29.4l-630.32 0c-16.17,0 -29.4,-13.23 -29.4,-29.4l0 -175.33c0,-16.17 13.23,-29.4 29.4,-29.4z"/>
  <path class="fil6" d="M32.34 0l630.32 0c8.9,0 16.98,3.64 22.84,9.5 5.86,5.86 9.5,13.94 9.5,22.84l0 175.33c0,8.9 -3.64,16.98 -9.5,22.84 -5.86,5.86 -13.94,9.5 -22.84,9.5l-630.32 0c-8.9,0 -16.98,-3.64 -22.84,-9.5 -5.86,-5.86 -9.5,-13.94 -9.5,-22.84l0 -175.33c0,-8.9 3.64,-16.98 9.5,-22.84 5.86,-5.86 13.94,-9.5 22.84,-9.5zm630.32 5.88l-630.32 0c-7.28,0 -13.89,2.97 -18.69,7.77 -4.8,4.8 -7.77,11.41 -7.77,18.69l0 175.33c0,7.28 2.97,13.89 7.77,18.69 4.8,4.79 11.41,7.77 18.69,7.77l630.32 0c7.28,0 13.89,-2.98 18.69,-7.77 4.8,-4.8 7.77,-11.41 7.77,-18.69l0 -175.33c0,-7.28 -2.97,-13.89 -7.77,-18.69 -4.8,-4.8 -11.41,-7.77 -18.69,-7.77z"/>
  <path class="fil7" d="M178.11 40.62c-1.34,1.29 -1.63,1.94 -2.49,3.61 -0.74,1.44 -1.42,2.96 -2.06,4.55 -2.12,5.26 -3.75,11.32 -5.17,17.76 -4.19,19.01 -6.11,37.46 -9.35,56.41 -0.52,3.02 -1.16,6.44 -2.23,9.63 -1.43,4.3 -3.59,8.19 -7.67,10.43 -1.37,0.74 -2.93,1.3 -4.74,1.64l-53.71 0c2.82,-3 5.22,-8.87 7.31,-16.37 1.64,-5.85 3.09,-12.7 4.41,-19.96 2.39,-13.04 3.87,-26.24 6,-39.32 1.72,-10.56 5.56,-25.35 15.14,-28.38l54.56 0z"/>
  <path class="fil6" d="M246.54 124.32c0,2.21 -0.33,4.26 -0.98,6.13 -0.67,1.86 -1.57,3.55 -2.77,5.03 -1.18,1.49 -2.61,2.79 -4.28,3.92 -1.66,1.11 -3.55,2.06 -5.62,2.82 -2.1,0.76 -4.35,1.34 -6.73,1.71 -2.38,0.39 -5.13,0.57 -8.2,0.57l-21.44 0c-0.98,0 -1.88,-0.27 -2.75,-0.83 -0.87,-0.58 -1.3,-1.56 -1.3,-2.97l0 -62.77c0,-1.41 0.43,-2.4 1.3,-2.97 0.87,-0.56 1.77,-0.84 2.75,-0.84l18.65 0c4.89,0 8.91,0.39 12.03,1.19 3.13,0.8 5.75,1.97 7.83,3.49 2.1,1.52 3.68,3.4 4.71,5.61 1.06,2.21 1.61,4.71 1.61,7.5 0,1.67 -0.24,3.26 -0.72,4.79 -0.45,1.52 -1.14,2.93 -2.05,4.21 -0.91,1.28 -2.04,2.43 -3.42,3.45 -1.36,1.03 -2.94,1.84 -4.72,2.51 2.23,0.35 4.33,1.02 6.28,1.99 1.94,0.94 3.63,2.17 5.1,3.66 1.45,1.48 2.6,3.23 3.44,5.23 0.85,1.99 1.28,4.18 1.28,6.57zm381.07 -0.93c0,2.51 -0.38,4.78 -1.19,6.8 -0.82,2.04 -1.92,3.84 -3.33,5.4 -1.43,1.56 -3.11,2.9 -5.08,4.01 -1.95,1.14 -4.13,2.06 -6.49,2.79 -2.36,0.72 -4.89,1.26 -7.57,1.59 -2.69,0.36 -5.67,0.52 -8.98,0.52l-21.79 0c-1.41,0 -2.57,-0.35 -3.53,-1.05 -0.95,-0.71 -1.42,-1.86 -1.42,-3.46l0 -61.36c0,-1.59 0.47,-2.75 1.42,-3.45 0.96,-0.71 2.12,-1.06 3.53,-1.06l20.6 0c5.02,0 9.28,0.37 12.76,1.1 3.49,0.72 6.43,1.82 8.81,3.28 2.4,1.47 4.22,3.33 5.49,5.57 1.26,2.25 1.91,4.9 1.91,7.95 0,1.71 -0.26,3.3 -0.78,4.81 -0.5,1.5 -1.24,2.87 -2.21,4.1 -0.97,1.24 -2.16,2.32 -3.59,3.27 -1.41,0.94 -3.03,1.71 -4.85,2.28 2.34,0.37 4.48,1 6.45,1.91 1.95,0.91 3.68,2.06 5.13,3.51 1.45,1.43 2.62,3.1 3.46,5.03 0.84,1.92 1.25,4.07 1.25,6.46zm-21.54 -29.63c0,-1.43 -0.26,-2.69 -0.76,-3.8 -0.5,-1.13 -1.28,-2.06 -2.29,-2.81 -1,-0.74 -2.28,-1.31 -3.83,-1.72 -1.54,-0.39 -3.6,-0.6 -6.17,-0.6l-8.44 0 0 18.27 9.33 0c2.4,0 4.32,-0.24 5.75,-0.72 1.45,-0.48 2.64,-1.17 3.59,-2.01 0.95,-0.85 1.65,-1.85 2.12,-3 0.46,-1.14 0.7,-2.34 0.7,-3.61zm4.24 30.14c0,-1.64 -0.31,-3.1 -0.96,-4.39 -0.62,-1.29 -1.55,-2.37 -2.77,-3.24 -1.23,-0.86 -2.79,-1.54 -4.69,-2.01 -1.9,-0.46 -4.37,-0.71 -7.42,-0.71l-9.89 0 0 20.02 12.05 0c2.32,0 4.27,-0.21 5.87,-0.63 1.57,-0.41 2.94,-1.02 4.11,-1.84 1.17,-0.82 2.07,-1.84 2.72,-3.04 0.65,-1.23 0.98,-2.6 0.98,-4.16zm-47.75 -43.91c0,1.06 -0.06,1.95 -0.17,2.69 -0.11,0.74 -0.26,1.36 -0.48,1.8 -0.21,0.45 -0.47,0.8 -0.77,1 -0.33,0.23 -0.68,0.34 -1.06,0.34l-20.54 0 0 56.73c0,0.36 -0.13,0.69 -0.41,0.97 -0.28,0.3 -0.73,0.54 -1.36,0.71 -0.63,0.18 -1.49,0.33 -2.57,0.44 -1.06,0.11 -2.41,0.17 -4.03,0.17 -1.6,0 -2.94,-0.06 -4.02,-0.17 -1.06,-0.11 -1.93,-0.26 -2.56,-0.44 -0.64,-0.17 -1.1,-0.41 -1.36,-0.71 -0.28,-0.28 -0.41,-0.61 -0.41,-0.97l0 -56.73 -20.55 0c-0.41,0 -0.78,-0.11 -1.06,-0.34 -0.31,-0.2 -0.57,-0.55 -0.78,-1 -0.2,-0.44 -0.37,-1.06 -0.48,-1.8 -0.08,-0.74 -0.15,-1.63 -0.15,-2.69 0,-1.08 0.07,-2.01 0.15,-2.77 0.11,-0.76 0.28,-1.37 0.48,-1.82 0.21,-0.46 0.47,-0.78 0.78,-0.98 0.28,-0.21 0.65,-0.3 1.06,-0.3l57.81 0c0.38,0 0.73,0.09 1.06,0.3 0.3,0.2 0.56,0.52 0.77,0.98 0.22,0.45 0.37,1.06 0.48,1.82 0.11,0.76 0.17,1.69 0.17,2.77zm-68.42 59.5c0,0.84 -0.18,1.58 -0.5,2.25 -0.35,0.65 -0.8,1.19 -1.36,1.61 -0.59,0.45 -1.26,0.76 -2.04,0.97 -0.78,0.18 -1.58,0.3 -2.38,0.3l-7.09 0c-1.47,0 -2.77,-0.13 -3.83,-0.39 -1.08,-0.25 -2.08,-0.71 -2.99,-1.38 -0.91,-0.67 -1.79,-1.58 -2.64,-2.73 -0.84,-1.13 -1.79,-2.62 -2.83,-4.43l-20.43 -32.9c-1.16,-1.97 -2.38,-4.07 -3.61,-6.33 -1.21,-2.27 -2.31,-4.48 -3.29,-6.61l-0.13 0c0.18,2.6 0.31,5.19 0.39,7.79 0.07,2.6 0.11,5.28 0.11,8.02l0 36.84c0,0.35 -0.11,0.69 -0.35,0.96 -0.21,0.3 -0.62,0.54 -1.18,0.75 -0.59,0.2 -1.35,0.35 -2.32,0.46 -0.97,0.11 -2.23,0.17 -3.74,0.17 -1.47,0 -2.71,-0.06 -3.68,-0.17 -0.97,-0.11 -1.73,-0.26 -2.29,-0.46 -0.55,-0.21 -0.91,-0.45 -1.13,-0.75 -0.22,-0.27 -0.32,-0.61 -0.32,-0.96l0 -63.27c0,-1.69 0.58,-2.97 1.75,-3.83 1.15,-0.85 2.57,-1.28 4.26,-1.28l8.96 0c1.6,0 2.94,0.11 4.04,0.35 1.11,0.25 2.08,0.63 2.95,1.17 0.86,0.54 1.68,1.3 2.44,2.27 0.76,0.95 1.54,2.13 2.34,3.54l15.99 25.74c0.93,1.56 1.83,3.1 2.74,4.6 0.91,1.5 1.8,3.01 2.64,4.51 0.85,1.51 1.67,2.99 2.47,4.44 0.8,1.45 1.58,2.9 2.34,4.34l0.06 0c-0.13,-2.54 -0.22,-5.18 -0.28,-7.94 -0.07,-2.75 -0.09,-5.39 -0.09,-7.87l0 -33.03c0,-0.36 0.13,-0.69 0.37,-0.99 0.26,-0.27 0.69,-0.53 1.28,-0.76 0.58,-0.2 1.36,-0.37 2.33,-0.44 0.98,-0.1 2.23,-0.15 3.75,-0.15 1.45,0 2.64,0.05 3.61,0.15 0.97,0.07 1.73,0.24 2.25,0.44 0.54,0.23 0.91,0.49 1.1,0.76 0.22,0.3 0.33,0.63 0.33,0.99l0 63.25zm-79.14 3.6c0,0.28 -0.08,0.54 -0.24,0.76 -0.17,0.23 -0.45,0.39 -0.86,0.54 -0.41,0.15 -0.95,0.26 -1.69,0.34 -0.71,0.07 -1.62,0.11 -2.73,0.11 -1.12,0 -2.07,-0.04 -2.81,-0.09 -0.73,-0.06 -1.36,-0.15 -1.86,-0.26 -0.52,-0.13 -0.93,-0.32 -1.25,-0.56 -0.31,-0.22 -0.59,-0.52 -0.85,-0.84l-24.08 -27.08 0 27.14c0,0.28 -0.08,0.54 -0.26,0.72 -0.17,0.21 -0.45,0.37 -0.82,0.52 -0.39,0.15 -0.91,0.26 -1.58,0.34 -0.69,0.07 -1.56,0.11 -2.61,0.11 -1,0 -1.84,-0.04 -2.54,-0.11 -0.67,-0.08 -1.21,-0.19 -1.6,-0.34 -0.41,-0.15 -0.69,-0.31 -0.82,-0.52 -0.15,-0.18 -0.24,-0.44 -0.24,-0.72l0 -72.67c0,-0.3 0.09,-0.56 0.24,-0.76 0.13,-0.22 0.41,-0.41 0.82,-0.56 0.39,-0.13 0.93,-0.24 1.6,-0.31 0.7,-0.08 1.54,-0.11 2.54,-0.11 1.05,0 1.92,0.03 2.61,0.11 0.67,0.07 1.19,0.18 1.58,0.31 0.37,0.15 0.65,0.34 0.82,0.56 0.18,0.2 0.26,0.46 0.26,0.76l0 44.26 21.55 -20.33c0.33,-0.37 0.69,-0.67 1.08,-0.91 0.37,-0.22 0.83,-0.42 1.37,-0.59 0.52,-0.17 1.14,-0.26 1.86,-0.32 0.71,-0.05 1.58,-0.09 2.59,-0.09 1.06,0 1.95,0.04 2.66,0.09 0.72,0.06 1.3,0.13 1.76,0.26 0.43,0.13 0.75,0.3 0.95,0.5 0.17,0.19 0.28,0.47 0.28,0.78 0,0.45 -0.15,0.88 -0.41,1.3 -0.28,0.45 -0.74,0.95 -1.36,1.53l-20.67 17.75 23.2 25.82c0.54,0.61 0.93,1.12 1.17,1.51 0.23,0.37 0.34,0.72 0.34,1.05zm-56.65 0.06c0,0.28 -0.08,0.54 -0.26,0.72 -0.17,0.21 -0.43,0.37 -0.82,0.52 -0.39,0.15 -0.91,0.26 -1.58,0.34 -0.69,0.07 -1.53,0.11 -2.53,0.11 -1.06,0 -1.92,-0.04 -2.62,-0.11 -0.67,-0.08 -1.19,-0.19 -1.58,-0.34 -0.36,-0.15 -0.65,-0.31 -0.82,-0.52 -0.17,-0.18 -0.26,-0.44 -0.26,-0.72l0 -28.67c0,-2.8 -0.24,-5.05 -0.75,-6.74 -0.5,-1.7 -1.24,-3.17 -2.21,-4.42 -0.98,-1.22 -2.23,-2.17 -3.79,-2.82 -1.53,-0.65 -3.31,-0.98 -5.34,-0.98 -2.62,0 -5.24,0.8 -7.86,2.39 -2.64,1.6 -5.38,3.94 -8.24,7.02l0 34.22c0,0.28 -0.08,0.54 -0.26,0.72 -0.17,0.21 -0.45,0.37 -0.82,0.52 -0.39,0.15 -0.91,0.26 -1.58,0.34 -0.69,0.07 -1.56,0.11 -2.62,0.11 -0.99,0 -1.84,-0.04 -2.53,-0.11 -0.67,-0.08 -1.21,-0.19 -1.6,-0.34 -0.41,-0.15 -0.69,-0.31 -0.82,-0.52 -0.15,-0.18 -0.24,-0.44 -0.24,-0.72l0 -48.96c0,-0.3 0.07,-0.54 0.2,-0.74 0.13,-0.19 0.38,-0.37 0.75,-0.54 0.39,-0.17 0.87,-0.26 1.47,-0.32 0.59,-0.05 1.37,-0.09 2.34,-0.09 0.93,0 1.71,0.04 2.32,0.09 0.6,0.06 1.08,0.15 1.42,0.32 0.33,0.17 0.59,0.35 0.74,0.54 0.13,0.2 0.22,0.44 0.22,0.74l0 6.48c3.2,-3.08 6.4,-5.35 9.6,-6.78 3.18,-1.43 6.4,-2.15 9.65,-2.15 3.81,0 7.01,0.56 9.61,1.67 2.59,1.1 4.71,2.58 6.31,4.42 1.6,1.86 2.75,4.03 3.44,6.5 0.72,2.48 1.06,5.47 1.06,8.95l0 29.87zm-58.72 0.05c0,0.43 -0.17,0.77 -0.52,0.97 -0.32,0.22 -0.8,0.39 -1.38,0.5 -0.61,0.11 -1.47,0.17 -2.6,0.17 -1.1,0 -1.99,-0.06 -2.64,-0.17 -0.65,-0.11 -1.12,-0.28 -1.42,-0.5 -0.31,-0.2 -0.44,-0.54 -0.44,-0.97l0 -4.9c-2.51,2.29 -5.28,4.07 -8.35,5.33 -3.05,1.26 -6.29,1.91 -9.71,1.91 -3.01,0 -5.74,-0.33 -8.16,-1.02 -2.42,-0.67 -4.5,-1.63 -6.21,-2.89 -1.71,-1.28 -3.05,-2.84 -4,-4.68 -0.93,-1.86 -1.41,-3.96 -1.41,-6.32 0,-2.76 0.65,-5.14 1.95,-7.18 1.32,-2.02 3.2,-3.71 5.65,-5.05 2.44,-1.36 5.45,-2.36 9,-3.03 3.55,-0.66 7.55,-1 11.98,-1l7.86 0 0 -3.8c0,-1.9 -0.24,-3.57 -0.7,-5.02 -0.47,-1.44 -1.21,-2.65 -2.25,-3.6 -1.03,-0.96 -2.38,-1.69 -4.02,-2.19 -1.64,-0.48 -3.68,-0.72 -6.08,-0.72 -2.6,0 -4.89,0.26 -6.94,0.78 -2.06,0.53 -3.86,1.11 -5.39,1.74 -1.56,0.63 -2.84,1.21 -3.87,1.75 -1.04,0.52 -1.8,0.78 -2.32,0.78 -0.32,0 -0.63,-0.08 -0.89,-0.21 -0.26,-0.15 -0.47,-0.37 -0.67,-0.67 -0.17,-0.28 -0.32,-0.65 -0.41,-1.11 -0.08,-0.45 -0.13,-0.95 -0.13,-1.49 0,-0.91 0.09,-1.63 0.24,-2.15 0.15,-0.52 0.5,-1.02 1.08,-1.5 0.56,-0.47 1.54,-1.02 2.94,-1.66 1.39,-0.63 2.99,-1.2 4.81,-1.74 1.81,-0.52 3.8,-0.95 5.97,-1.3 2.14,-0.35 4.33,-0.52 6.53,-0.52 4.09,0 7.57,0.41 10.45,1.21 2.88,0.79 5.19,1.97 6.97,3.51 1.77,1.54 3.07,3.45 3.87,5.73 0.8,2.29 1.21,4.94 1.21,7.99l0 33.02zm-10.4 -22.35l-8.94 0c-2.88,0 -5.36,0.21 -7.48,0.61 -2.1,0.43 -3.86,1.04 -5.26,1.86 -1.39,0.82 -2.42,1.8 -3.07,2.93 -0.65,1.15 -0.98,2.45 -0.98,3.94 0,2.54 0.93,4.57 2.81,6.07 1.89,1.5 4.53,2.27 7.9,2.27 2.75,0 5.28,-0.6 7.64,-1.81 2.34,-1.18 4.8,-3.02 7.38,-5.49l0 -10.38zm-59.11 -28.01c0,-1.71 -0.28,-3.25 -0.83,-4.63 -0.54,-1.37 -1.4,-2.54 -2.59,-3.51 -1.19,-0.96 -2.73,-1.71 -4.63,-2.21 -1.9,-0.5 -4.41,-0.76 -7.55,-0.76l-11.27 0 0 22.8 12.42 0c2.83,0 5.12,-0.31 6.85,-0.96 1.73,-0.64 3.16,-1.49 4.31,-2.55 1.14,-1.07 1.97,-2.32 2.51,-3.75 0.52,-1.45 0.78,-2.91 0.78,-4.43zm4.95 32.02c0,-2.1 -0.39,-3.95 -1.19,-5.53 -0.78,-1.6 -1.9,-2.95 -3.42,-4.03 -1.49,-1.1 -3.37,-1.91 -5.62,-2.49 -2.27,-0.55 -5.11,-0.83 -8.55,-0.83l-13.04 0 0 24.8 15.83 0c2.51,0 4.68,-0.26 6.54,-0.76 1.86,-0.5 3.5,-1.26 4.91,-2.27 1.43,-0.98 2.53,-2.22 3.33,-3.71 0.8,-1.48 1.21,-3.21 1.21,-5.18z"/>
  <path class="fil5" d="M67.21 75.22c0.89,0.86 1.09,1.29 1.66,2.41 0.5,0.96 0.95,1.97 1.38,3.03 1.41,3.51 2.5,7.55 3.45,11.85 2.79,12.68 4.07,24.99 6.24,37.63 0.34,2.01 0.77,4.29 1.48,6.42 0.96,2.87 2.4,5.47 5.12,6.96 0.91,0.49 1.95,0.87 3.16,1.09l11.51 0 24.32 0 11.51 0c-1.88,-2 -3.48,-5.91 -4.88,-10.91 -1.09,-3.91 -2.05,-8.48 -2.94,-13.32 -1.59,-8.7 -2.58,-17.5 -4,-26.23 -1.15,-7.04 -3.71,-16.91 -10.1,-18.93l-11.51 0 -24.88 0 -11.52 0z"/>
  <path class="fil8" d="M73.7 92.51c2.79,12.68 4.07,24.99 6.24,37.63 0.34,2.01 0.77,4.29 1.48,6.42 0.96,2.87 2.4,5.47 5.12,6.96 0.91,0.49 1.95,0.87 3.16,1.09l1.02 0c2.81,-3.01 5.2,-8.86 7.28,-16.33 1.64,-5.85 3.09,-12.7 4.41,-19.96 2.01,-10.98 3.38,-22.06 5.03,-33.1l-3.83 0 -24.88 0 -11.52 0c0.89,0.86 1.09,1.29 1.66,2.41 0.5,0.96 0.95,1.97 1.38,3.03 1.41,3.51 2.5,7.55 3.45,11.85z"/>
  <path class="fil9" d="M107.44 75.22c-1.65,11.04 -3.02,22.12 -5.03,33.1 -1.32,7.26 -2.77,14.11 -4.41,19.96 -2.08,7.47 -4.47,13.32 -7.28,16.33l10.49 0 24.32 0 11.51 0c-1.88,-2 -3.48,-5.91 -4.88,-10.91 -1.09,-3.91 -2.05,-8.48 -2.94,-13.32 -1.59,-8.7 -2.58,-17.5 -4,-26.23 -1.15,-7.04 -3.71,-16.91 -10.1,-18.93l-7.68 0z"/>
  <path class="fil6" d="M462.47 174.22l-1.89 0c0.27,-2.54 0.41,-4.46 0.41,-5.77 0,-1.85 -0.51,-3.33 -1.51,-4.4 -1,-1.08 -2.36,-1.61 -4.08,-1.61 -2.65,0 -4.98,0.96 -6.96,2.88 -1.98,1.92 -2.97,4.07 -2.97,6.47 0,1.28 0.27,2.44 0.82,3.48 0.53,1.04 1.74,2.49 3.6,4.36 3.4,3.32 5.64,5.94 6.71,7.82 1.06,1.89 1.59,3.72 1.59,5.52 0,2.63 -0.8,5.17 -2.41,7.61 -1.61,2.43 -3.97,4.45 -7.1,6.04 -3.13,1.58 -6.44,2.37 -9.92,2.37 -3.44,0 -6.33,-0.9 -8.68,-2.68 -2.35,-1.8 -3.54,-3.68 -3.54,-5.66 0,-1.06 0.31,-1.94 0.93,-2.65 0.62,-0.7 1.32,-1.05 2.11,-1.05 0.83,0 1.51,0.32 2.03,0.98 0.35,0.38 0.68,1.26 1.03,2.61 0.38,1.64 0.85,2.83 1.41,3.58 0.56,0.73 1.32,1.33 2.3,1.8 0.98,0.47 2.04,0.71 3.21,0.71 3.45,0 6.48,-1.17 9.07,-3.5 2.57,-2.33 3.87,-4.92 3.87,-7.74 0,-0.96 -0.16,-1.93 -0.49,-2.88 -0.33,-0.95 -0.92,-2.04 -1.8,-3.24 -0.59,-0.83 -1.94,-2.28 -4.02,-4.36 -2.06,-2.03 -3.34,-3.42 -3.87,-4.17 -0.76,-1.09 -1.32,-2.18 -1.67,-3.28 -0.36,-1.1 -0.55,-2.19 -0.55,-3.28 0,-2.2 0.74,-4.4 2.22,-6.63 1.47,-2.23 3.39,-4 5.74,-5.31 2.36,-1.32 5.03,-1.98 8.03,-1.98 1.5,0 3.35,0.24 5.54,0.69 1.26,0.24 2.35,0.42 3.27,0.55 -0.53,1.57 -0.94,3.04 -1.24,4.44 -0.28,1.39 -0.68,4.14 -1.19,8.28zm3.05 6.27l-1.16 -1.7 2.68 -1.81c2.61,-1.8 4.44,-2.95 5.51,-3.45 0.6,-0.29 1.16,-0.44 1.67,-0.44 0.51,0 0.99,0.3 1.45,0.88 2.12,2.67 3.92,6.3 5.37,10.85 1.44,4.56 2.17,8.98 2.17,13.26 0,0.55 -0.02,1.4 -0.07,2.53 4.08,-7.52 6.13,-13.48 6.13,-17.9 0,-0.93 -0.21,-2.14 -0.62,-3.66 -0.44,-1.7 -0.66,-2.91 -0.66,-3.63 0,-0.71 0.22,-1.29 0.68,-1.75 0.45,-0.45 1,-0.69 1.68,-0.69 0.85,0 1.53,0.34 2.05,0.99 0.52,0.64 0.78,1.57 0.78,2.78 0,3.12 -0.71,7.01 -2.14,11.66 -1.43,4.66 -3.67,9.65 -6.72,15.01 -3.06,5.36 -5.86,9.33 -8.38,11.93 -2.53,2.6 -4.96,4.46 -7.33,5.58 -2.35,1.13 -4.58,1.69 -6.68,1.69 -1.6,0 -2.8,-0.3 -3.61,-0.89 -0.81,-0.59 -1.22,-1.31 -1.22,-2.12 0,-0.73 0.32,-1.35 0.94,-1.87 0.64,-0.52 1.49,-0.78 2.55,-0.78 0.82,0 1.95,0.16 3.37,0.47 1.52,0.35 2.56,0.51 3.12,0.51 1.47,0 3.03,-0.62 4.68,-1.85 2.25,-1.69 4.03,-3.71 5.34,-6.05 1.31,-2.35 1.98,-4.71 1.98,-7.11 0,-3.36 -0.49,-7.39 -1.47,-12.1 -0.98,-4.72 -2.37,-8.32 -4.15,-10.81 -0.9,-1.28 -1.85,-1.93 -2.87,-1.93 -1.19,0 -2.87,0.81 -5.07,2.4zm54.52 -7.98l2.39 -0.51 -2.72 9.19c-1.08,3.63 -2.11,7.84 -3.08,12.61 -0.54,2.58 -0.8,4.25 -0.8,4.99 0,0.76 0.3,1.13 0.91,1.13 0.38,0 1,-0.25 1.85,-0.75 1.5,-0.91 2.94,-2.01 4.31,-3.35l1.16 1.42c-2.76,2.51 -4.51,4.04 -5.29,4.57 -1.55,1.06 -3.02,1.85 -4.42,2.36 -0.92,0.33 -1.82,0.5 -2.69,0.5 -0.63,0 -1.1,-0.15 -1.41,-0.43 -0.32,-0.3 -0.47,-0.72 -0.47,-1.27 0,-0.36 0.1,-0.86 0.29,-1.49l1.45 -4.93c-2.08,2.49 -4.56,4.63 -7.43,6.42 -1.77,1.11 -3.39,1.67 -4.86,1.67 -1.4,0 -2.48,-0.5 -3.23,-1.49 -1.02,-1.34 -1.53,-3.07 -1.53,-5.22 0,-2.56 0.7,-5.41 2.06,-8.55 1.36,-3.15 3.19,-6 5.49,-8.57 2.29,-2.56 4.72,-4.44 7.26,-5.65 1.95,-0.92 4.46,-1.37 7.53,-1.37 0.78,0 1.56,0.05 2.36,0.14l0.87 -1.42zm-4.49 5.56c-1.31,-0.28 -2.41,-0.41 -3.3,-0.41 -2.18,0 -4.08,0.61 -5.7,1.79 -1.62,1.2 -3.12,3.36 -4.51,6.46 -1.39,3.11 -2.08,6.2 -2.08,9.3 0,1.64 0.27,2.83 0.83,3.55 0.55,0.73 1.28,1.09 2.17,1.09 1.67,0 3.46,-0.89 5.37,-2.7 1.91,-1.8 3.31,-4.39 4.2,-7.77l3.02 -11.31zm17.66 25.55l-5.41 0 2.54 -9.75c1.23,-4.79 2.31,-9.33 3.23,-13.64 0.22,-1.06 0.32,-1.72 0.32,-1.99 0,-0.58 -0.26,-0.87 -0.79,-0.87 -0.36,0 -0.92,0.25 -1.67,0.75 -0.75,0.49 -2.11,1.72 -4.06,3.67l-1.13 -1.26c2.33,-2.49 4.64,-4.36 6.94,-5.61 2.32,-1.23 4.09,-1.86 5.32,-1.86 0.44,0 0.77,0.11 1.03,0.3 0.25,0.22 0.39,0.48 0.39,0.78 0,0.33 -0.17,1.15 -0.47,2.5l-1.56 6.5c2.43,-3.85 5.19,-7.13 8.26,-9.86 1.47,-1.31 2.7,-1.96 3.69,-1.96 0.73,0 1.34,0.24 1.82,0.71 0.48,0.47 0.73,1.01 0.73,1.64 0,0.66 -0.24,1.22 -0.72,1.67 -0.47,0.46 -1.65,1.01 -3.53,1.64 -1.79,0.6 -3.24,1.32 -4.36,2.16 -1.13,0.86 -2.37,2.14 -3.7,3.89 -1.34,1.74 -2.28,3.25 -2.81,4.55 -0.54,1.29 -1.35,4.3 -2.43,9.01l-1.63 7.03zm31 -46.08c0.74,0 1.36,0.24 1.84,0.74 0.48,0.49 0.73,1.14 0.73,1.91 0,1.06 -0.37,2 -1.11,2.8 -0.73,0.82 -1.56,1.22 -2.48,1.22 -0.73,0 -1.33,-0.25 -1.82,-0.76 -0.48,-0.51 -0.71,-1.17 -0.71,-1.99 0,-1.09 0.34,-2.02 1.05,-2.77 0.69,-0.77 1.53,-1.15 2.5,-1.15zm-14.28 24l-1.6 -1.23c2.41,-2.66 4.62,-4.54 6.61,-5.67 1.99,-1.13 3.7,-1.7 5.1,-1.7 0.76,0 1.36,0.18 1.77,0.51 0.42,0.35 0.61,0.81 0.61,1.39 0,0.69 -0.78,3.67 -2.35,8.92 -2.56,8.58 -3.85,13.75 -3.85,15.5 0,0.35 0.09,0.64 0.26,0.86 0.17,0.23 0.35,0.34 0.55,0.34 0.77,0 2.75,-1.49 5.94,-4.49l1.41 1.38c-3.3,3.11 -5.72,5.11 -7.24,5.99 -1.53,0.86 -2.77,1.3 -3.74,1.3 -0.85,0 -1.52,-0.26 -2.01,-0.8 -0.5,-0.53 -0.75,-1.27 -0.75,-2.21 0,-3.02 1.82,-10.41 5.45,-22.15 0.16,-0.56 0.25,-1.05 0.25,-1.49 0,-0.48 -0.21,-0.73 -0.66,-0.73 -0.48,0 -1.03,0.2 -1.65,0.58 -0.61,0.39 -1.99,1.63 -4.1,3.7zm41.35 -9.03l2.39 -0.51 -2.72 9.19c-1.08,3.63 -2.1,7.84 -3.08,12.61 -0.54,2.58 -0.8,4.25 -0.8,4.99 0,0.76 0.3,1.13 0.91,1.13 0.38,0 1,-0.25 1.86,-0.75 1.49,-0.91 2.93,-2.01 4.3,-3.35l1.16 1.42c-2.76,2.51 -4.51,4.04 -5.29,4.57 -1.55,1.06 -3.02,1.85 -4.42,2.36 -0.92,0.33 -1.82,0.5 -2.68,0.5 -0.64,0 -1.11,-0.15 -1.42,-0.43 -0.32,-0.3 -0.47,-0.72 -0.47,-1.27 0,-0.36 0.1,-0.86 0.29,-1.49l1.45 -4.93c-2.08,2.49 -4.56,4.63 -7.43,6.42 -1.77,1.11 -3.39,1.67 -4.86,1.67 -1.4,0 -2.48,-0.5 -3.23,-1.49 -1.02,-1.34 -1.52,-3.07 -1.52,-5.22 0,-2.56 0.69,-5.41 2.05,-8.55 1.36,-3.15 3.19,-6 5.49,-8.57 2.29,-2.56 4.72,-4.44 7.26,-5.65 1.95,-0.92 4.46,-1.37 7.53,-1.37 0.78,0 1.56,0.05 2.37,0.14l0.86 -1.42zm-4.49 5.56c-1.31,-0.28 -2.41,-0.41 -3.3,-0.41 -2.18,0 -4.07,0.61 -5.7,1.79 -1.62,1.2 -3.11,3.36 -4.51,6.46 -1.39,3.11 -2.08,6.2 -2.08,9.3 0,1.64 0.27,2.83 0.83,3.55 0.55,0.73 1.28,1.09 2.18,1.09 1.67,0 3.45,-0.89 5.37,-2.7 1.9,-1.8 3.3,-4.39 4.19,-7.77l3.02 -11.31zm40.06 17.87l0.94 1.33c-2.22,2.48 -4.51,4.43 -6.84,5.88 -1.6,0.99 -2.93,1.49 -3.97,1.49 -0.84,0 -1.52,-0.34 -2.04,-1.02 -0.52,-0.68 -0.78,-1.73 -0.78,-3.16 0,-0.96 0.2,-2.37 0.6,-4.21 0.39,-1.86 1.53,-5.82 3.39,-11.92 0.83,-3 1.24,-4.74 1.24,-5.25 0,-0.83 -0.41,-1.24 -1.24,-1.24 -1.02,0 -2.28,0.51 -3.8,1.53 -2.13,1.39 -4.02,3.19 -5.66,5.37 -1.04,1.4 -1.88,3.47 -2.51,6.23l-2.89 12.61 -5.41 0c1.16,-4.23 2.06,-7.68 2.68,-10.37l5.34 -23.27c0.96,-4.27 2.24,-7.56 3.82,-9.88 1.58,-2.31 3.65,-4.14 6.2,-5.53 2.55,-1.37 5.07,-2.07 7.56,-2.07 1.04,0 1.86,0.26 2.46,0.77 0.61,0.51 0.91,1.14 0.91,1.92 0,0.65 -0.3,1.22 -0.88,1.72 -0.59,0.49 -1.4,0.74 -2.41,0.74 -0.59,0 -1.34,-0.06 -2.26,-0.17 -2.07,-0.3 -3.51,-0.45 -4.32,-0.45 -1.1,0 -2.01,0.46 -2.7,1.35 -0.71,0.89 -1.44,3 -2.18,6.31l-4.06 17.91c2.87,-3.02 6,-5.57 9.39,-7.65 1.98,-1.24 3.58,-1.85 4.78,-1.85 0.94,0 1.68,0.28 2.21,0.85 0.53,0.57 0.79,1.36 0.79,2.37 0,0.82 -0.08,1.65 -0.28,2.47 -0.31,1.42 -1.05,4.01 -2.22,7.76 -1.57,5.17 -2.48,8.39 -2.77,9.64 -0.27,1.26 -0.41,2.38 -0.41,3.37 0,0.39 0.07,0.69 0.2,0.87 0.13,0.2 0.32,0.3 0.6,0.3 0.58,0 1.67,-0.7 3.26,-2.07 0.89,-0.75 1.98,-1.64 3.26,-2.68z"/>
 </g>
</svg>
